<?xml version="1.0" encoding="UTF-8" standalone="no"?>
<!-- Created with Inkscape (http://www.inkscape.org/) -->

<svg
   width="600mm"
   height="400mm"
   viewBox="0 0 600 400"
   version="1.1"
   id="svg5"
   inkscape:version="1.2.1 (9c6d41e410, 2022-07-14)"
   sodipodi:docname="car_sun_blocker_main.svg"
   xmlns:inkscape="http://www.inkscape.org/namespaces/inkscape"
   xmlns:sodipodi="http://sodipodi.sourceforge.net/DTD/sodipodi-0.dtd"
   xmlns="http://www.w3.org/2000/svg"
   xmlns:svg="http://www.w3.org/2000/svg">
  <sodipodi:namedview
     id="namedview7"
     pagecolor="#ffffff"
     bordercolor="#000000"
     borderopacity="0.25"
     inkscape:showpageshadow="2"
     inkscape:pageopacity="0.0"
     inkscape:pagecheckerboard="0"
     inkscape:deskcolor="#d1d1d1"
     inkscape:document-units="mm"
     showgrid="false"
     inkscape:zoom="0.3624843"
     inkscape:cx="1230.3981"
     inkscape:cy="765.55039"
     inkscape:window-width="1920"
     inkscape:window-height="991"
     inkscape:window-x="-9"
     inkscape:window-y="-9"
     inkscape:window-maximized="1"
     inkscape:current-layer="layer2"
     showguides="true" />
  <defs
     id="defs2">
    <inkscape:path-effect
       effect="mirror_symmetry"
       start_point="284.61395,158.14332"
       end_point="284.61395,189.43179"
       center_point="284.61395,173.78756"
       id="path-effect5109"
       is_visible="true"
       lpeversion="1.2"
       lpesatellites=""
       mode="horizontal"
       discard_orig_path="false"
       fuse_paths="false"
       oposite_fuse="false"
       split_items="false"
       split_open="false"
       link_styles="false" />
    <inkscape:path-effect
       effect="mirror_symmetry"
       start_point="188.49017,158.14332"
       end_point="188.49017,189.43179"
       center_point="188.49017,173.78756"
       id="path-effect5085"
       is_visible="true"
       lpeversion="1.2"
       lpesatellites=""
       mode="vertical"
       discard_orig_path="false"
       fuse_paths="false"
       oposite_fuse="false"
       split_items="false"
       split_open="false"
       link_styles="false" />
    <inkscape:path-effect
       effect="mirror_symmetry"
       start_point="255.14078,59.539463"
       end_point="255.14078,130.27095"
       center_point="255.14078,94.905208"
       id="path-effect5722"
       is_visible="true"
       lpeversion="1.2"
       lpesatellites=""
       mode="vertical"
       discard_orig_path="false"
       fuse_paths="false"
       oposite_fuse="false"
       split_items="false"
       split_open="false"
       link_styles="false" />
    <inkscape:path-effect
       effect="mirror_symmetry"
       start_point="210.70395,59.539463"
       end_point="210.70395,76.539463"
       center_point="210.70395,68.039463"
       id="path-effect5720"
       is_visible="true"
       lpeversion="1.2"
       lpesatellites=""
       mode="horizontal"
       discard_orig_path="false"
       fuse_paths="false"
       oposite_fuse="false"
       split_items="false"
       split_open="false"
       link_styles="false" />
    <inkscape:path-effect
       effect="mirror_symmetry"
       start_point="84.478917,122.12929"
       end_point="257.187,2.6641503"
       center_point="170.83296,62.396718"
       id="path-effect5697"
       is_visible="true"
       lpeversion="1.2"
       lpesatellites=""
       mode="horizontal"
       discard_orig_path="false"
       fuse_paths="false"
       oposite_fuse="false"
       split_items="false"
       split_open="false"
       link_styles="false" />
    <inkscape:path-effect
       effect="mirror_symmetry"
       start_point="47.891117,226.61572"
       end_point="197.89112,276.61572"
       center_point="197.89112,226.61572"
       id="path-effect5693"
       is_visible="true"
       lpeversion="1.2"
       lpesatellites=""
       mode="horizontal"
       discard_orig_path="false"
       fuse_paths="false"
       oposite_fuse="false"
       split_items="false"
       split_open="false"
       link_styles="false" />
  </defs>
  <g
     inkscape:groupmode="layer"
     id="layer2"
     inkscape:label="top_layer"
     style="display:inline">
    <rect
       style="display:inline;fill:#000000;fill-opacity:1;stroke-width:1.7076;stroke-linecap:round"
       id="rect234-2-6-0-4-6"
       width="20"
       height="125"
       x="76.983475"
       y="172.00937"
       ry="4.7439537"
       rx="3.4665442" />
    <rect
       style="display:inline;fill:#000000;fill-opacity:1;stroke-width:2.6578;stroke-linecap:round"
       id="rect5891-00-5"
       width="12"
       height="10"
       x="80.983513"
       y="162.14813"
       rx="0"
       ry="0" />
    <rect
       style="display:inline;fill:#000000;fill-opacity:1;stroke-width:3.43121;stroke-linecap:round"
       id="rect5891-00-5-2"
       width="20"
       height="10"
       x="76.51268"
       y="152.62575"
       rx="1.0444747"
       ry="1.3573865" />
    <path
       id="rect234-2-6-0-4-6-4"
       style="display:inline;fill:#000000;fill-opacity:1;stroke-width:1.7076;stroke-linecap:round"
       d="m 33.4052,151.29206 c -0.578638,0 -1.044381,0.60555 -1.044381,1.35754 v 7.28482 c 0,0.752 0.465743,1.35754 1.044381,1.35754 h 3.426664 v 9.38393 h -0.5333 c -1.920464,0 -3.466972,2.11575 -3.466972,4.74389 V 290.9316 c 0,2.62814 1.546508,4.74389 3.466972,4.74389 h 13.066902 c 1.920464,0 3.466455,-2.11575 3.466455,-4.74389 V 175.41978 c 0,-2.62814 -1.545991,-4.74389 -3.466455,-4.74389 h -0.533817 v -9.38393 h 2.484603 c 0.578638,0 1.044897,-0.60554 1.044897,-1.35754 v -7.28482 c 0,-0.75199 -0.466259,-1.35754 -1.044897,-1.35754 z" />
    <rect
       style="display:inline;fill:#000000;stroke-width:1.87058;stroke-linecap:round"
       id="rect234-2-6-0"
       width="20"
       height="150"
       x="459.66635"
       y="25"
       ry="5.6927447"
       rx="3.4665442" />
    <rect
       style="display:inline;opacity:1;fill:#ff0000;fill-opacity:1;stroke-width:1.87935;stroke-linecap:round"
       id="rect5891"
       width="12"
       height="5"
       x="463.66635"
       y="150"
       rx="0.62668484"
       ry="0.67869323" />
    <rect
       style="display:inline;fill:#ff0000;fill-opacity:1;stroke-width:1.87935;stroke-linecap:round"
       id="rect5891-0"
       width="12"
       height="5"
       x="463.66635"
       y="45"
       rx="0.62668484"
       ry="0.67869323" />
    <rect
       style="display:inline;fill:#000000;stroke-width:2.02046;stroke-linecap:round"
       id="rect234-2-6-0-4"
       width="20"
       height="175"
       x="54.758446"
       y="10.161289"
       ry="6.6415353"
       rx="3.4665442" />
    <rect
       style="display:inline;fill:#ff0000;fill-opacity:1;stroke-width:1.87935;stroke-linecap:round"
       id="rect5891-00"
       width="12"
       height="5"
       x="58.758446"
       y="165.161"
       rx="0.62668484"
       ry="0.67869323" />
    <rect
       style="display:inline;fill:#ff0000;fill-opacity:1;stroke-width:1.87935;stroke-linecap:round"
       id="rect5891-00-0"
       width="12"
       height="5"
       x="58.758511"
       y="145.161"
       rx="0.62668484"
       ry="0.67869323" />
    <rect
       style="display:inline;fill:#ff0000;fill-opacity:1;stroke-width:1.87935;stroke-linecap:round"
       id="rect5891-00-0-3"
       width="12"
       height="5"
       x="58.758511"
       y="125.161"
       rx="0.62668484"
       ry="0.67869323" />
    <path
       id="rect234-2-6-0-4-5"
       style="display:inline;fill:#000000;stroke-width:2.02046;stroke-linecap:round"
       d="M 13.35319 7.4677612 C 11.432731 7.4677612 9.886735 10.429817 9.886735 14.109216 L 9.886735 175.82596 C 9.886735 179.50537 11.432731 182.46793 13.35319 182.46793 L 26.420093 182.46793 C 28.340552 182.46793 29.886548 179.50537 29.886548 175.82596 L 29.886548 14.109216 C 29.886548 10.429817 28.340552 7.4677612 26.420093 7.4677612 L 13.35319 7.4677612 z M 14.513326 122.46746 L 25.259957 122.46746 C 25.60714 122.46746 25.886792 122.76998 25.886792 123.14597 L 25.886792 126.78864 C 25.886792 127.16464 25.60714 127.46767 25.259957 127.46767 L 14.513326 127.46767 C 14.166143 127.46767 13.887008 127.16464 13.887008 126.78864 L 13.887008 123.14597 C 13.887008 122.76998 14.166143 122.46746 14.513326 122.46746 z M 14.513326 142.46727 L 25.259957 142.46727 C 25.60714 142.46727 25.886792 142.77031 25.886792 143.1463 L 25.886792 146.78897 C 25.886792 147.16497 25.60714 147.46748 25.259957 147.46748 L 14.513326 147.46748 C 14.166143 147.46748 13.887008 147.16497 13.887008 146.78897 L 13.887008 143.1463 C 13.887008 142.77031 14.166143 142.46727 14.513326 142.46727 z M 14.513326 162.4676 L 25.259957 162.4676 C 25.60714 162.4676 25.886792 162.77012 25.886792 163.14611 L 25.886792 166.78879 C 25.886792 167.16478 25.60714 167.4673 25.259957 167.4673 L 14.513326 167.4673 C 14.166143 167.4673 13.886491 167.16478 13.886491 166.78879 L 13.886491 163.14611 C 13.886491 162.77012 14.166143 162.4676 14.513326 162.4676 z " />
    <path
       id="rect234-2-6-0-2"
       style="display:inline;fill:#000000;stroke-width:1.87058;stroke-linecap:round"
       d="m 465.7478,178.73534 c -1.92046,0 -3.46645,2.5389 -3.46645,5.69268 v 138.61479 c 0,3.15378 1.54599,5.69268 3.46645,5.69268 h 13.0669 c 1.92047,0 3.46646,-2.5389 3.46646,-5.69268 V 184.42802 c 0,-3.15378 -1.54599,-5.69268 -3.46646,-5.69268 z m 1.16014,19.99982 h 10.74663 c 0.34718,0 0.62683,0.30303 0.62683,0.67902 v 3.64268 c 0,0.37599 -0.27965,0.67851 -0.62683,0.67851 h -10.74663 c -0.34719,0 -0.62684,-0.30252 -0.62684,-0.67851 v -3.64268 c 0,-0.37599 0.27965,-0.67902 0.62684,-0.67902 z m 0,105.00031 h 10.74663 c 0.34718,0 0.62683,0.30251 0.62683,0.67851 v 3.64267 c 0,0.37599 -0.27965,0.67851 -0.62683,0.67851 h -10.74663 c -0.34719,0 -0.62684,-0.30252 -0.62684,-0.67851 v -3.64267 c 0,-0.376 0.27965,-0.67851 0.62684,-0.67851 z" />
    <rect
       style="display:inline;fill:#000000;stroke-width:2.60093;stroke-linecap:round"
       id="rect234-2-6"
       width="20"
       height="290"
       x="97.710754"
       y="8.5837402"
       ry="11.005973"
       rx="3.4665442" />
  </g>
  <g
     inkscape:groupmode="layer"
     id="layer3"
     inkscape:label="bot_layer"
     style="display:inline">
    <rect
       style="fill:#333333;fill-opacity:1;stroke-width:3.45623;stroke-linecap:round"
       id="rect348-7-4-6-2"
       width="160"
       height="110"
       x="298.76981"
       y="271.65683"
       rx="7.1728773"
       ry="6.4894891" />
    <rect
       style="display:inline;fill:#e94747;fill-opacity:1;stroke-width:1.13386;stroke-linecap:round"
       id="rect1478-6-1-3-6"
       width="5"
       height="21"
       x="307.67392"
       y="315.59921"
       rx="0.95826644"
       ry="1.4387302" />
    <rect
       style="display:inline;fill:#e94747;fill-opacity:1;stroke-width:1.13386;stroke-linecap:round"
       id="rect1478-9-0-9-3-6"
       width="5"
       height="21"
       x="443.89923"
       y="315.46692"
       rx="0.95826644"
       ry="1.4387302" />
    <path
       id="rect348-7-4-6"
       style="display:inline;fill:#333333;fill-opacity:1;stroke-width:3.45623;stroke-linecap:round"
       d="m 301.71027,133.16396 c -3.97377,0 -7.17321,2.89436 -7.17321,6.48953 v 97.02095 c 0,3.59518 3.19944,6.48953 7.17321,6.48953 h 145.65416 c 3.97376,0 7.17269,-2.89435 7.17269,-6.48953 v -97.02095 c 0,-3.59517 -3.19893,-6.48953 -7.17269,-6.48953 z m 138.91452,43.81025 h 3.08353 c 0.53088,0 0.9586,0.64162 0.9586,1.43867 v 18.12241 c 0,0.79706 -0.42772,1.43919 -0.9586,1.43919 h -3.08353 c -0.53088,0 -0.95808,-0.64213 -0.95808,-1.43919 v -18.12241 c 0,-0.79705 0.4272,-1.43867 0.95808,-1.43867 z m -136.22528,0.13229 h 3.08353 c 0.53088,0 0.95808,0.64162 0.95808,1.43867 v 18.12241 c 0,0.79706 -0.4272,1.43919 -0.95808,1.43919 h -3.08353 c -0.53088,0 -0.95808,-0.64213 -0.95808,-1.43919 v -18.12241 c 0,-0.79705 0.4272,-1.43867 0.95808,-1.43867 z" />
    <path
       id="rect348-7-7-2"
       style="display:inline;opacity:1;fill:#333333;fill-opacity:1;stroke-width:3.45623;stroke-linecap:round"
       d="m 129.6293,134.15561 c -3.97377,0 -7.1727,2.89435 -7.1727,6.48953 v 97.02095 c 0,3.59516 3.19893,6.48952 7.1727,6.48952 h 145.65413 c 3.97377,0 7.17321,-2.89436 7.17321,-6.48952 v -97.02095 c 0,-3.59518 -3.19944,-6.48953 -7.17321,-6.48953 z m 13.28547,44.23348 h 3.08353 c 0.53088,0 0.95808,0.64161 0.95808,1.43867 v 18.1224 c 0,0.79706 -0.4272,1.43868 -0.95808,1.43868 h -3.08353 c -0.53087,0 -0.95807,-0.64162 -0.95807,-1.43868 v -18.1224 c 0,-0.79706 0.4272,-1.43867 0.95807,-1.43867 z m 109.99949,0 h 3.08353 c 0.53088,0 0.95808,0.64161 0.95808,1.43867 v 18.1224 c 0,0.79706 -0.4272,1.43868 -0.95808,1.43868 h -3.08353 c -0.53088,0 -0.95808,-0.64162 -0.95808,-1.43868 v -18.1224 c 0,-0.79706 0.4272,-1.43867 0.95808,-1.43867 z" />
    <rect
       style="display:inline;fill:#000000;fill-opacity:1;stroke-width:3.45623;stroke-linecap:round"
       id="rect348-7"
       width="160"
       height="110"
       x="124.73923"
       y="275.53452"
       rx="7.1728773"
       ry="6.4894891" />
    <rect
       style="display:inline;fill:#e94747;fill-opacity:1;stroke-width:1.13386;stroke-linecap:round"
       id="rect1478-6"
       width="5"
       height="21"
       x="144.21228"
       y="319.4769"
       rx="0.95826644"
       ry="1.4387302" />
    <rect
       style="display:inline;fill:#e94747;fill-opacity:1;stroke-width:1.13386;stroke-linecap:round"
       id="rect1478-9-0"
       width="5"
       height="21"
       x="254.34381"
       y="319.3446"
       rx="0.95826644"
       ry="1.4387302" />
  </g>
  <g
     inkscape:groupmode="layer"
     id="layer4"
     inkscape:label="underneath_layer"
     style="display:inline">
    <rect
       style="fill:#000000;fill-opacity:1;stroke-width:1.83882;stroke-linecap:round"
       id="rect5344-9"
       width="40"
       height="20"
       x="308.66037"
       y="316.1568"
       ry="2.245064" />
    <rect
       style="fill:#000000;fill-opacity:1;stroke-width:0.65012;stroke-linecap:round"
       id="rect5344-0-93"
       width="10"
       height="10"
       x="348.29327"
       y="321.1568"
       ry="0" />
    <rect
       style="fill:#000000;fill-opacity:1;stroke-width:1.83687;stroke-linecap:round"
       id="rect5344-7-2"
       width="39.915791"
       height="19.999693"
       x="-446.32224"
       y="-341.08759"
       ry="2.2450294"
       transform="matrix(-0.99993864,0.01107739,-0.00558147,-0.99998442,0,0)" />
    <rect
       style="fill:#000000;fill-opacity:1;stroke-width:0.645068;stroke-linecap:round"
       id="rect5344-0-9-3"
       width="9.922286"
       height="9.922286"
       x="-406.31537"
       y="-334.28372"
       ry="0"
       transform="rotate(179.54947)" />
    <rect
       style="fill:#000000;fill-opacity:1;stroke-width:1.87409;stroke-linecap:round"
       id="rect5600-09"
       width="5.9868379"
       height="80.448128"
       x="306.95111"
       y="285.79843"
       rx="0"
       ry="0" />
    <rect
       style="fill:#000000;fill-opacity:1;stroke-width:1.87409;stroke-linecap:round"
       id="rect5600-0-4"
       width="5.9868379"
       height="80.448128"
       x="443.27728"
       y="284.83069"
       rx="0"
       ry="0" />
    <rect
       style="fill:#000000;fill-opacity:1;stroke-width:0.913117;stroke-linecap:round"
       id="rect5344-0-2-1-6"
       width="9.8636026"
       height="19.999983"
       x="-396.95508"
       y="-339.31848"
       ry="1.190624"
       rx="1.4353597"
       transform="matrix(-0.99996822,0.00797188,-0.0077559,-0.99996992,0,0)" />
    <rect
       style="fill:#000000;fill-opacity:1;stroke-width:0.919409;stroke-linecap:round"
       id="rect5344-0-2-2"
       width="10"
       height="20"
       x="357.62985"
       y="316.1568"
       ry="1.190625"
       rx="1.4552083" />
    <path
       style="opacity:1;fill:#000000;fill-opacity:1;stroke-width:3.09715;stroke-linecap:round"
       d="m 308.06985,308.50416 70.49889,6.08542 69.9349,-4.7625 0.93816,-25.1432 -5.93916,-4.47979 -132.35264,0.25424 -4.4063,4.18283 z"
       id="path13598"
       sodipodi:nodetypes="cccccccc" />
    <path
       style="fill:#000000;fill-opacity:1;stroke-width:3.09715;stroke-linecap:round"
       d="m 447.99355,344.67274 -70.4748,-6.35839 -69.95281,4.49162 -1.03553,25.13938 5.92177,4.50275 132.35263,0.25832 4.42247,-4.16574 z"
       id="path13598-8"
       sodipodi:nodetypes="cccccccc" />
    <rect
       style="opacity:1;fill:#000000;fill-opacity:1;stroke-width:3;stroke-linecap:round"
       id="rect13730"
       width="12.160764"
       height="37.043556"
       x="372.22162"
       y="307.94797" />
    <path
       id="rect5344-9-2"
       style="display:inline;fill:#000000;fill-opacity:1;stroke-width:1.83882;stroke-linecap:round"
       d="m 449.61928,21.5066 -132.35265,0.254248 -4.40644,4.182691 0.1757,3.162081 v 70.696458 l -0.38913,9.445942 5.9216,4.50256 132.35265,0.25839 4.42247,-4.16564 -0.0238,-0.45579 h 0.24804 V 26.133191 h -0.015 l 0.006,-0.146761 z m -130.59668,28.717627 59.31576,5.120101 v 24.612451 l -59.31576,3.808554 v -6.306076 h 33.50958 c 1.24377,0 2.24483,-1.00106 2.24483,-2.244824 v -2.755387 h 8.96947 v 3.809586 c 0,0.659606 0.64903,1.190625 1.45521,1.190625 h 7.08949 c 0.80619,0 1.45521,-0.531019 1.45521,-1.190625 V 58.65007 c 0,-0.659606 -0.64902,-1.190625 -1.45521,-1.190625 h -7.08949 c -0.80618,0 -1.45521,0.531019 -1.45521,1.190625 v 3.809069 h -8.96947 v -2.75487 c 0,-1.243764 -1.00106,-2.244824 -2.24483,-2.244824 H 319.0226 Z m 130.55844,1.248503 v 6.020304 l -33.04553,0.365869 c -1.24367,0.01378 -2.23936,1.02642 -2.23242,2.270146 l 0.0129,2.335258 -8.74004,0.06873 -0.0305,-3.894853 c -0.005,-0.659585 -0.64919,-1.185078 -1.44435,-1.178739 l -6.99286,0.05581 c -0.79516,0.0063 -1.43087,0.542409 -1.42575,1.201994 l 0.13643,17.618046 c 0.005,0.659585 0.64919,1.185595 1.44435,1.179256 l 6.99286,-0.05581 c 0.79516,-0.0063 1.43138,-0.542409 1.42627,-1.201994 l -0.0295,-3.801835 8.71833,-0.06873 0.0181,3.251998 c 0.007,1.243726 1.01407,2.233797 2.25774,2.22002 l 32.93391,-0.364836 v 8.072892 L 390.49937,80.235832 V 55.496257 Z" />
    <path
       id="rect14586"
       style="opacity:1;fill:#47fff8;stroke-width:3.11275;stroke-linecap:round"
       d="m 260.85932,284.45911 1.00426,1.55379 c 0.75916,1.1746 -3.98143,2.99143 -6.63271,7.96528 -22.25071,41.74248 -53.28988,81.75278 -102.74943,75.04336 -5.33698,-0.72398 -8.6142,4.89942 -9.37337,3.72481 l -1.00424,-1.5538 c -0.75916,-1.17461 1.30817,-8.78615 6.63269,-7.96525 42.3924,6.53572 80.49552,-29.41621 102.74942,-75.04338 2.47533,-5.07515 8.61422,-4.89943 9.37338,-3.72481 z"
       sodipodi:nodetypes="sssssssss" />
    <path
       id="rect14586-3"
       style="display:inline;fill:#47fff8;stroke-width:3.11275;stroke-linecap:round"
       d="m 260.22276,373.95987 1.00426,-1.55379 c 0.75916,-1.1746 -3.98143,-2.99143 -6.63271,-7.96528 -22.25071,-41.74248 -53.28988,-81.75278 -102.74944,-75.04336 -5.33697,0.72398 -8.61419,-4.89942 -9.37335,-3.72481 l -1.00425,1.5538 c -0.75917,1.17461 1.30817,8.78615 6.6327,7.96525 42.39239,-6.53572 80.49551,29.41621 102.74941,75.04338 2.47533,5.07515 8.61422,4.89943 9.37338,3.72481 z"
       sodipodi:nodetypes="sssssssss" />
  </g>
  <g
     inkscape:groupmode="layer"
     id="layer5"
     inkscape:label="under_under_layer"
     style="display:inline">
    <rect
       style="display:inline;fill:#47fff8;fill-opacity:1;stroke-width:1.52334;stroke-linecap:round"
       id="rect5348-1-3"
       width="16"
       height="28"
       x="303.13031"
       y="312.43805"
       rx="1.161919"
       ry="1.4748133" />
    <rect
       style="display:inline;fill:#47fff8;fill-opacity:1;stroke-width:1.52334;stroke-linecap:round"
       id="rect5348-8-8-2"
       width="16"
       height="28"
       x="439.09473"
       y="311.47693"
       rx="1.161919"
       ry="1.4748133" />
    <ellipse
       style="display:inline;opacity:1;fill:#47fff8;fill-opacity:1;stroke-width:5.24216;stroke-linecap:round"
       id="path13784"
       cx="378.11493"
       cy="326.37619"
       rx="14.873549"
       ry="8.8867121" />
    <ellipse
       style="display:inline;fill:#47fff8;fill-opacity:1;stroke-width:2.37141;stroke-linecap:round"
       id="path5491"
       ry="15.478125"
       rx="19.633234"
       cy="331.80356"
       cx="204.76849" />
    <rect
       style="display:inline;fill:#47fff8;fill-opacity:1;stroke-width:1.52334;stroke-linecap:round"
       id="rect5348"
       width="16"
       height="28"
       x="138.4574"
       y="315.29926"
       rx="1.161919"
       ry="1.4748133" />
    <rect
       style="display:inline;fill:#47fff8;fill-opacity:1;stroke-width:1.52334;stroke-linecap:round"
       id="rect5348-8"
       width="16"
       height="28"
       x="248.97743"
       y="315.64777"
       rx="1.161919"
       ry="1.4748133" />
    <path
       id="path15197"
       style="opacity:1;fill:#ffffff;stroke-width:5.37996;stroke-linecap:round"
       d="m 201.61367,323.98514 c -0.19565,5.12244 -1.39468,9.28176 -3.11511,9.28177 -1.72043,1e-5 -3.05735,-4.15591 -3.11512,-9.28177 -0.12903,-11.44877 1.39469,-9.28179 3.11512,-9.28178 1.72043,1e-5 3.63124,-4.2315 3.11511,9.28178 z"
       sodipodi:nodetypes="sssss" />
    <path
       id="path15197-8"
       style="display:inline;fill:#ffffff;stroke-width:5.37996;stroke-linecap:round"
       d="m 213.21033,323.74194 c -0.28542,5.11824 -1.39469,9.28179 -3.11512,9.28178 -1.72043,-1e-5 -2.87187,-4.16138 -3.11511,-9.28178 -0.58064,-12.22295 1.36242,-7.41079 1.56672,-7.28177 1.45464,0.91865 5.17964,-1.97345 4.66351,7.28177 z"
       sodipodi:nodetypes="sssss" />
    <path
       id="path15197-8-6"
       style="display:inline;fill:#ffffff;stroke-width:9.14065;stroke-linecap:round"
       d="m 206.41218,345.09089 c -2.43651,7.09352 -14.44159,3.75334 -11.00032,-6.57731 1.56951,-4.71164 4.13244,0.60354 9.25849,0.49412 5.12605,-0.10942 11.75631,-5.20914 9.30456,-0.89036 -2.98286,5.25434 -6.2137,3.04607 -7.56273,6.97355 z"
       sodipodi:nodetypes="sssss" />
    <path
       id="rect14586-6"
       style="display:inline;fill:#47fff8;stroke-width:3.11275;stroke-linecap:round"
       d="m 255.73633,142.69465 c -0.0719,-7e-4 -0.14466,-5.3e-4 -0.21859,0.001 -2.21794,0.0469 -5.33543,1.13694 -6.93084,4.408 -6.40578,13.13373 -14.12687,25.46239 -22.88336,36.2102 -19.38464,-23.42705 -44.04014,-39.43512 -76.75759,-34.99683 -5.33694,0.72394 -8.61441,-4.89945 -9.37357,-3.72484 l -1.00407,1.55391 c -0.75915,1.17461 1.30816,8.78579 6.63267,7.96489 23.06215,-3.55555 44.85188,5.47122 63.51393,21.78161 1.05029,0.54699 1.85464,2.13632 1.59629,6.7691 -0.28542,5.11823 -1.39463,9.28161 -3.11506,9.2816 -1.72043,-1e-5 -2.87181,-4.16121 -3.11505,-9.2816 -0.19053,-4.01065 -0.10931,-6.18752 0.093,-7.29723 a 19.633234,15.478125 0 0 0 -2.30425,-0.11937 19.633234,15.478125 0 0 0 -3.21789,0.21342 c 0.16089,1.49507 0.2017,3.81592 0.063,7.44606 -0.19565,5.12242 -1.39515,9.28159 -3.11558,9.2816 -1.72041,1e-5 -3.05728,-4.15576 -3.11505,-9.2816 -0.0292,-2.59414 0.0305,-4.46135 0.15399,-5.84099 a 19.633234,15.478125 0 0 0 -10.40195,13.65963 19.633234,15.478125 0 0 0 10.48309,13.69271 c -0.92018,-1.72316 -1.17495,-4.0764 -0.20671,-6.98304 1.56951,-4.71164 4.13282,0.60396 9.25887,0.49454 5.12602,-0.10942 11.75609,-5.20916 9.30434,-0.89038 -2.98286,5.25431 -6.21382,3.04574 -7.56285,6.97322 -0.55907,1.62762 -1.62221,2.70467 -2.88664,3.27525 -16.59448,11.84547 -35.23449,17.87583 -54.78889,14.86111 -5.32451,-0.8209 -7.39182,6.79079 -6.63267,7.9654 l 1.00408,1.55391 c 0.75916,1.17461 4.03662,-4.44881 9.37357,-3.72483 32.35664,4.38931 56.82904,-11.21799 76.11524,-34.22324 8.49758,10.56362 16.0004,22.61811 22.25239,35.4366 2.47533,5.07511 8.61443,4.89942 9.37359,3.72484 l 1.00407,-1.55391 c 0.75916,-1.1746 -3.98139,-2.99108 -6.63267,-7.96489 -6.4598,-12.11866 -13.66199,-24.08911 -21.83897,-34.81493 8.4409,-10.93667 15.84843,-23.21532 22.47563,-35.64796 2.65128,-4.97381 7.39183,-6.7908 6.63267,-7.9654 l -1.00407,-1.55339 c -0.23724,-0.36707 -0.99978,-0.63682 -2.01177,-0.67903 -0.0696,-0.003 -0.14052,-0.004 -0.21239,-0.005 z m -34.43976,45.78842 c 7.3e-4,8.3e-4 0.001,0.002 0.002,0.003 -4.9e-4,5.5e-4 -0.001,10e-4 -0.002,0.002 a 19.633234,15.478125 0 0 0 -5.2e-4,-0.004 z" />
  </g>
  <g
     inkscape:label="Layer 1"
     inkscape:groupmode="layer"
     id="layer1"
     style="display:inline">
    <text
       xml:space="preserve"
       style="font-size:17.6389px;font-family:Rockwell;-inkscape-font-specification:Rockwell;text-align:center;text-anchor:middle;fill:#e94747;fill-opacity:1;stroke-width:3;stroke-linecap:round"
       x="177.83665"
       y="262.29831"
       id="text2672"><tspan
         sodipodi:role="line"
         id="tspan2670"
         style="stroke-width:3"
         x="177.83665"
         y="262.29831">underneath</tspan></text>
    <text
       xml:space="preserve"
       style="font-size:17.6389px;font-family:Rockwell;-inkscape-font-specification:Rockwell;text-align:center;text-anchor:middle;fill:#e94747;fill-opacity:1;stroke-width:3;stroke-linecap:round"
       x="147.62762"
       y="125.58508"
       id="text2672-3"><tspan
         sodipodi:role="line"
         id="tspan2670-1"
         style="stroke-width:3"
         x="147.62762"
         y="125.58508">base</tspan></text>
    <text
       xml:space="preserve"
       style="font-size:17.6389px;font-family:Rockwell;-inkscape-font-specification:Rockwell;text-align:center;text-anchor:middle;fill:#e94747;fill-opacity:1;stroke-width:3;stroke-linecap:round"
       x="186.36119"
       y="30.211252"
       id="text2672-3-8"><tspan
         sodipodi:role="line"
         id="tspan2670-1-8"
         style="stroke-width:3"
         x="186.36119"
         y="30.211252">take A</tspan></text>
    <text
       xml:space="preserve"
       style="font-size:17.6389px;font-family:Rockwell;-inkscape-font-specification:Rockwell;text-align:center;text-anchor:middle;fill:#e94747;fill-opacity:1;stroke-width:3;stroke-linecap:round"
       x="361.47583"
       y="263.13177"
       id="text2672-2"><tspan
         sodipodi:role="line"
         id="tspan2670-0"
         style="stroke-width:3"
         x="361.47583"
         y="263.13177">underneath</tspan></text>
    <text
       xml:space="preserve"
       style="font-size:17.6389px;font-family:Rockwell;-inkscape-font-specification:Rockwell;text-align:center;text-anchor:middle;fill:#e94747;fill-opacity:1;stroke-width:3;stroke-linecap:round"
       x="331.26678"
       y="130.90874"
       id="text2672-3-9"><tspan
         sodipodi:role="line"
         id="tspan2670-1-81"
         style="stroke-width:3"
         x="331.26678"
         y="130.90874">base</tspan></text>
    <text
       xml:space="preserve"
       style="font-size:17.6389px;font-family:Rockwell;-inkscape-font-specification:Rockwell;text-align:center;text-anchor:middle;fill:#e94747;fill-opacity:1;stroke-width:3;stroke-linecap:round"
       x="351.23404"
       y="14.129988"
       id="text2672-3-8-4"><tspan
         sodipodi:role="line"
         id="tspan2670-1-8-7"
         style="stroke-width:3"
         x="351.23404"
         y="14.129988">take B</tspan></text>
  </g>
</svg>
