<?xml version="1.0" encoding="UTF-8" standalone="no"?>
<!-- Created with Inkscape (http://www.inkscape.org/) -->

<svg
   width="400mm"
   height="400mm"
   viewBox="0 0 400 400"
   version="1.1"
   id="svg5"
   inkscape:version="1.2.1 (9c6d41e410, 2022-07-14)"
   sodipodi:docname="car_sun_blocker_main.svg"
   xmlns:inkscape="http://www.inkscape.org/namespaces/inkscape"
   xmlns:sodipodi="http://sodipodi.sourceforge.net/DTD/sodipodi-0.dtd"
   xmlns="http://www.w3.org/2000/svg"
   xmlns:svg="http://www.w3.org/2000/svg">
  <sodipodi:namedview
     id="namedview7"
     pagecolor="#ffffff"
     bordercolor="#000000"
     borderopacity="0.25"
     inkscape:showpageshadow="2"
     inkscape:pageopacity="0.0"
     inkscape:pagecheckerboard="0"
     inkscape:deskcolor="#d1d1d1"
     inkscape:document-units="mm"
     showgrid="false"
     inkscape:zoom="0.35355339"
     inkscape:cx="572.75649"
     inkscape:cy="694.37886"
     inkscape:window-width="1920"
     inkscape:window-height="991"
     inkscape:window-x="-9"
     inkscape:window-y="-9"
     inkscape:window-maximized="1"
     inkscape:current-layer="layer1"
     showguides="true" />
  <defs
     id="defs2">
    <inkscape:path-effect
       effect="mirror_symmetry"
       start_point="284.61395,158.14332"
       end_point="284.61395,189.43179"
       center_point="284.61395,173.78756"
       id="path-effect5109"
       is_visible="true"
       lpeversion="1.2"
       lpesatellites=""
       mode="horizontal"
       discard_orig_path="false"
       fuse_paths="false"
       oposite_fuse="false"
       split_items="false"
       split_open="false"
       link_styles="false" />
    <inkscape:path-effect
       effect="mirror_symmetry"
       start_point="188.49017,158.14332"
       end_point="188.49017,189.43179"
       center_point="188.49017,173.78756"
       id="path-effect5085"
       is_visible="true"
       lpeversion="1.2"
       lpesatellites=""
       mode="vertical"
       discard_orig_path="false"
       fuse_paths="false"
       oposite_fuse="false"
       split_items="false"
       split_open="false"
       link_styles="false" />
    <inkscape:path-effect
       effect="mirror_symmetry"
       start_point="255.14078,59.539463"
       end_point="255.14078,130.27095"
       center_point="255.14078,94.905208"
       id="path-effect5722"
       is_visible="true"
       lpeversion="1.2"
       lpesatellites=""
       mode="vertical"
       discard_orig_path="false"
       fuse_paths="false"
       oposite_fuse="false"
       split_items="false"
       split_open="false"
       link_styles="false" />
    <inkscape:path-effect
       effect="mirror_symmetry"
       start_point="210.70395,59.539463"
       end_point="210.70395,76.539463"
       center_point="210.70395,68.039463"
       id="path-effect5720"
       is_visible="true"
       lpeversion="1.2"
       lpesatellites=""
       mode="horizontal"
       discard_orig_path="false"
       fuse_paths="false"
       oposite_fuse="false"
       split_items="false"
       split_open="false"
       link_styles="false" />
    <inkscape:path-effect
       effect="mirror_symmetry"
       start_point="84.478917,122.12929"
       end_point="257.187,2.6641503"
       center_point="170.83296,62.396718"
       id="path-effect5697"
       is_visible="true"
       lpeversion="1.2"
       lpesatellites=""
       mode="horizontal"
       discard_orig_path="false"
       fuse_paths="false"
       oposite_fuse="false"
       split_items="false"
       split_open="false"
       link_styles="false" />
    <inkscape:path-effect
       effect="mirror_symmetry"
       start_point="47.891117,226.61572"
       end_point="197.89112,276.61572"
       center_point="197.89112,226.61572"
       id="path-effect5693"
       is_visible="true"
       lpeversion="1.2"
       lpesatellites=""
       mode="horizontal"
       discard_orig_path="false"
       fuse_paths="false"
       oposite_fuse="false"
       split_items="false"
       split_open="false"
       link_styles="false" />
  </defs>
  <g
     inkscape:label="Layer 1"
     inkscape:groupmode="layer"
     id="layer1">
    <rect
       style="fill:#000000;stroke-width:2.60093;stroke-linecap:round"
       id="rect234-2-6"
       width="20"
       height="290"
       x="13.044034"
       y="8.5837402"
       ry="11.005973"
       rx="3.4665442" />
    <rect
       style="fill:#000000;stroke-width:1.52732;stroke-linecap:round"
       id="rect234-2-6-0"
       width="20"
       height="100"
       x="375"
       y="25"
       ry="3.7951632"
       rx="3.4665442" />
    <rect
       style="fill:#000000;fill-opacity:1;stroke-width:3.45623;stroke-linecap:round"
       id="rect348-7"
       width="160"
       height="110"
       x="40.072502"
       y="275.53452"
       rx="7.1728773"
       ry="6.4894891" />
    <text
       xml:space="preserve"
       style="font-size:17.6389px;font-family:Rockwell;-inkscape-font-specification:Rockwell;text-align:center;text-anchor:middle;fill:#e94747;fill-opacity:1;stroke-width:3;stroke-linecap:round"
       x="93.170151"
       y="262.29831"
       id="text2672"><tspan
         sodipodi:role="line"
         id="tspan2670"
         style="stroke-width:3"
         x="93.170151"
         y="262.29831">underneath</tspan></text>
    <text
       xml:space="preserve"
       style="font-size:17.6389px;font-family:Rockwell;-inkscape-font-specification:Rockwell;text-align:center;text-anchor:middle;fill:#e94747;fill-opacity:1;stroke-width:3;stroke-linecap:round"
       x="62.961048"
       y="125.58508"
       id="text2672-3"><tspan
         sodipodi:role="line"
         id="tspan2670-1"
         style="stroke-width:3"
         x="62.961048"
         y="125.58508">base</tspan></text>
    <text
       xml:space="preserve"
       style="font-size:17.6389px;font-family:Rockwell;-inkscape-font-specification:Rockwell;text-align:center;text-anchor:middle;fill:#e94747;fill-opacity:1;stroke-width:3;stroke-linecap:round"
       x="101.69474"
       y="30.211252"
       id="text2672-3-8"><tspan
         sodipodi:role="line"
         id="tspan2670-1-8"
         style="stroke-width:3"
         x="101.69474"
         y="30.211252">take A</tspan></text>
    <path
       id="rect348-7-7-2"
       style="opacity:1;fill:#333333;fill-opacity:1;stroke-width:3.45623;stroke-linecap:round"
       d="m 44.962597,134.15561 c -3.97377,0 -7.17269,2.89435 -7.17269,6.48953 v 97.02095 c 0,3.59516 3.19892,6.48952 7.17269,6.48952 H 190.61676 c 3.97377,0 7.17321,-2.89436 7.17321,-6.48952 v -97.02095 c 0,-3.59518 -3.19944,-6.48953 -7.17321,-6.48953 z m 13.28549,44.23348 h 3.08353 c 0.53088,0 0.95808,0.64161 0.95808,1.43867 v 18.1224 c 0,0.79706 -0.4272,1.43868 -0.95808,1.43868 h -3.08353 c -0.53088,0 -0.95808,-0.64162 -0.95808,-1.43868 v -18.1224 c 0,-0.79706 0.4272,-1.43867 0.95808,-1.43867 z m 109.999503,0 h 3.08353 c 0.53088,0 0.95808,0.64161 0.95808,1.43867 v 18.1224 c 0,0.79706 -0.4272,1.43868 -0.95808,1.43868 h -3.08353 c -0.53088,0 -0.95808,-0.64162 -0.95808,-1.43868 v -18.1224 c 0,-0.79706 0.4272,-1.43867 0.95808,-1.43867 z" />
    <ellipse
       style="fill:#47fff8;fill-opacity:1;stroke-width:2.37141;stroke-linecap:round"
       id="path5491"
       cx="120.10214"
       cy="331.80356"
       rx="16.536459"
       ry="15.478125" />
    <rect
       style="fill:#47fff8;fill-opacity:1;stroke-width:1.52334;stroke-linecap:round"
       id="rect5348"
       width="16"
       height="28"
       x="53.790756"
       y="315.29926"
       rx="1.161919"
       ry="1.4748133" />
    <rect
       style="fill:#e94747;fill-opacity:1;stroke-width:1.13386;stroke-linecap:round"
       id="rect1478-6"
       width="5"
       height="21"
       x="59.545662"
       y="319.4769"
       rx="0.95826644"
       ry="1.4387302" />
    <rect
       style="fill:#47fff8;fill-opacity:1;stroke-width:1.52334;stroke-linecap:round"
       id="rect5348-8"
       width="16"
       height="28"
       x="164.3111"
       y="315.64777"
       rx="1.161919"
       ry="1.4748133" />
    <rect
       style="fill:#e94747;fill-opacity:1;stroke-width:1.13386;stroke-linecap:round"
       id="rect1478-9-0"
       width="5"
       height="21"
       x="169.67747"
       y="319.3446"
       rx="0.95826644"
       ry="1.4387302" />
    <text
       xml:space="preserve"
       style="font-size:17.6389px;font-family:Rockwell;-inkscape-font-specification:Rockwell;text-align:center;text-anchor:middle;fill:#e94747;fill-opacity:1;stroke-width:3;stroke-linecap:round"
       x="276.80948"
       y="263.13177"
       id="text2672-2"><tspan
         sodipodi:role="line"
         id="tspan2670-0"
         style="stroke-width:3"
         x="276.80948"
         y="263.13177">underneath</tspan></text>
    <text
       xml:space="preserve"
       style="font-size:17.6389px;font-family:Rockwell;-inkscape-font-specification:Rockwell;text-align:center;text-anchor:middle;fill:#e94747;fill-opacity:1;stroke-width:3;stroke-linecap:round"
       x="246.60036"
       y="126.4186"
       id="text2672-3-9"><tspan
         sodipodi:role="line"
         id="tspan2670-1-81"
         style="stroke-width:3"
         x="246.60036"
         y="126.4186">base</tspan></text>
    <text
       xml:space="preserve"
       style="font-size:17.6389px;font-family:Rockwell;-inkscape-font-specification:Rockwell;text-align:center;text-anchor:middle;fill:#e94747;fill-opacity:1;stroke-width:3;stroke-linecap:round"
       x="219.47885"
       y="23.251238"
       id="text2672-3-8-4"><tspan
         sodipodi:role="line"
         id="tspan2670-1-8-7"
         style="stroke-width:3"
         x="219.47885"
         y="23.251238">take B</tspan></text>
    <path
       id="rect348-7-4-6"
       style="fill:#333333;fill-opacity:1;stroke-width:3.45623;stroke-linecap:round"
       d="M 217.0436 133.16396 C 213.06983 133.16396 209.87039 136.05832 209.87039 139.65349 L 209.87039 236.67444 C 209.87039 240.26962 213.06983 243.16397 217.0436 243.16397 L 362.69776 243.16397 C 366.67152 243.16397 369.87045 240.26962 369.87045 236.67444 L 369.87045 139.65349 C 369.87045 136.05832 366.67152 133.16396 362.69776 133.16396 L 217.0436 133.16396 z M 355.95812 176.97421 L 359.04165 176.97421 C 359.57253 176.97421 360.00025 177.61583 360.00025 178.41288 L 360.00025 196.53529 C 360.00025 197.33235 359.57253 197.97448 359.04165 197.97448 L 355.95812 197.97448 C 355.42724 197.97448 355.00004 197.33235 355.00004 196.53529 L 355.00004 178.41288 C 355.00004 177.61583 355.42724 176.97421 355.95812 176.97421 z M 219.73284 177.1065 L 222.81637 177.1065 C 223.34725 177.1065 223.77445 177.74812 223.77445 178.54517 L 223.77445 196.66758 C 223.77445 197.46464 223.34725 198.10677 222.81637 198.10677 L 219.73284 198.10677 C 219.20196 198.10677 218.77476 197.46464 218.77476 196.66758 L 218.77476 178.54517 C 218.77476 177.74812 219.20196 177.1065 219.73284 177.1065 z " />
    <rect
       style="fill:#47fff8;fill-opacity:1;stroke-width:3.05348;stroke-linecap:round"
       id="rect5348-8-8-0"
       width="40"
       height="45"
       x="334.92468"
       y="80.50164"
       rx="2.9047976"
       ry="2.3702357" />
    <rect
       style="fill:#47fff8;fill-opacity:1;stroke-width:3.05348;stroke-linecap:round"
       id="rect5348-8-8-0-6"
       width="40"
       height="45"
       x="334.72009"
       y="24.272163"
       rx="2.9047976"
       ry="2.3702357" />
    <path
       id="rect5344"
       style="opacity:1;fill:#000000;fill-opacity:1;stroke-width:2.05586;stroke-linecap:round"
       d="m 185.0616,25.05859 c -4.24332,2.44505 -4.77593,5.36911 -5.17747,8.31008 h -0.18551 v 80.44832 h 0.0491 c 0.7048,3.32599 1.57475,6.56948 5.18986,8.44031 21.97561,-10.85927 44.00716,-18.99919 66.96181,-21.53667 23.11621,0.58909 43.10603,12.51841 64.32837,21.16615 4.10838,-2.38937 4.71837,-5.21598 5.10718,-8.0703 h 0.11576 V 33.82084 c 0.0248,-0.0216 0.0496,-0.0459 0.0744,-0.0656 -0.0237,-0.11457 -0.0503,-0.22775 -0.0744,-0.34209 v -0.0445 h -0.01 C 320.75833,30.14947 319.84756,27.04347 316.35212,25.2167 294.333,35.98748 272.2692,44.03851 249.30453,46.48362 226.19087,45.80153 206.24879,33.79163 185.06143,25.05857 Z M 315.46346,43.5417 v 19.65203 l -42.54159,0.37672 c -1.24371,0.011 -2.238,1.02125 -2.22933,2.26498 l 0.016,2.33577 -8.74313,0.0687 -0.03,-3.89485 c -0.005,-0.65959 -0.64971,-1.1856 -1.44488,-1.17926 l -6.99233,0.0558 c -0.79517,0.006 -1.43139,0.54241 -1.42627,1.202 l 0.13694,17.61856 c 0.005,0.65958 0.64919,1.18508 1.44435,1.17874 l 6.99286,-0.0553 c 0.79516,-0.006 1.43087,-0.5424 1.42575,-1.20199 l -0.0295,-3.80184 8.73538,-0.0687 0.0227,3.25199 c 0.009,1.24373 1.01713,2.23621 2.26084,2.22519 l 42.40207,-0.3762 v 19.68045 c -14.12259,-8.60405 -28.29411,-12.43421 -64.29944,-12.1512 -30.45528,-0.0387 -46.98056,1.48626 -65.47869,13.24777 V 83.16615 h 43.29052 c 1.24377,0 2.24534,-1.00158 2.24534,-2.24534 v -2.75487 h 9.02374 v 3.80959 c 0,0.6596 0.64902,1.19062 1.45521,1.19062 h 7.08949 c 0.80618,0 1.45521,-0.53102 1.45521,-1.19062 V 64.35645 c 0,-0.65961 -0.64903,-1.19063 -1.45521,-1.19063 H 241.7 c -0.80619,0 -1.45521,0.53102 -1.45521,1.19063 v 3.80958 h -9.02374 v -2.75487 c 0,-1.24376 -1.00157,-2.24534 -2.24534,-2.24534 H 185.68533 V 44.03469 c 14.10909,8.68849 28.25356,12.58721 64.31442,12.44885 30.41781,0.16102 46.94585,-1.29395 65.46371,-12.94184 z" />
    <rect
       style="opacity:1;fill:#ff0000;fill-opacity:1;stroke-width:1.87935;stroke-linecap:round"
       id="rect5891"
       width="12"
       height="5"
       x="379"
       y="95"
       rx="0.62668484"
       ry="0.67869323" />
    <rect
       style="fill:#ff0000;fill-opacity:1;stroke-width:1.87935;stroke-linecap:round"
       id="rect5891-0"
       width="12"
       height="5"
       x="379"
       y="45"
       rx="0.62668484"
       ry="0.67869323" />
    <path
       id="rect234-2-6-0-6"
       style="fill:#000000;stroke-width:1.52732;stroke-linecap:round"
       d="M 379.99179 127.36018 C 378.07133 127.36018 376.52534 129.05278 376.52534 131.1553 L 376.52534 223.56465 C 376.52534 225.66717 378.07133 227.36028 379.99179 227.36028 L 393.0587 227.36028 C 394.97915 227.36028 396.52515 225.66717 396.52515 223.56465 L 396.52515 131.1553 C 396.52515 129.05278 394.97915 127.36018 393.0587 127.36018 L 379.99179 127.36018 z M 381.15193 147.36 L 391.89856 147.36 C 392.24574 147.36 392.52539 147.66251 392.52539 148.03851 L 392.52539 151.68118 C 392.52539 152.05718 392.24574 152.36021 391.89856 152.36021 L 381.15193 152.36021 C 380.80475 152.36021 380.52509 152.05718 380.52509 151.68118 L 380.52509 148.03851 C 380.52509 147.66251 380.80475 147.36 381.15193 147.36 z M 381.15193 197.36005 L 391.89856 197.36005 C 392.24574 197.36005 392.52539 197.66256 392.52539 198.03856 L 392.52539 201.68123 C 392.52539 202.05723 392.24574 202.36026 391.89856 202.36026 L 381.15193 202.36026 C 380.80475 202.36026 380.52509 202.05723 380.52509 201.68123 L 380.52509 198.03856 C 380.52509 197.66256 380.80475 197.36005 381.15193 197.36005 z " />
    <rect
       style="fill:#333333;fill-opacity:1;stroke-width:3.45623;stroke-linecap:round"
       id="rect348-7-4-6-2"
       width="160"
       height="110"
       x="214.10338"
       y="271.65683"
       rx="7.1728773"
       ry="6.4894891" />
    <rect
       style="fill:#47fff8;fill-opacity:1;stroke-width:1.52334;stroke-linecap:round"
       id="rect5348-1-3"
       width="16"
       height="28"
       x="218.46393"
       y="312.43805"
       rx="1.161919"
       ry="1.4748133" />
    <rect
       style="fill:#e94747;fill-opacity:1;stroke-width:1.13386;stroke-linecap:round"
       id="rect1478-6-1-3-6"
       width="5"
       height="21"
       x="223.00757"
       y="315.59921"
       rx="0.95826644"
       ry="1.4387302" />
    <rect
       style="fill:#47fff8;fill-opacity:1;stroke-width:1.52334;stroke-linecap:round"
       id="rect5348-8-8-2"
       width="16"
       height="28"
       x="354.42838"
       y="311.47693"
       rx="1.161919"
       ry="1.4748133" />
    <rect
       style="fill:#e94747;fill-opacity:1;stroke-width:1.13386;stroke-linecap:round"
       id="rect1478-9-0-9-3-6"
       width="5"
       height="21"
       x="359.23288"
       y="315.46692"
       rx="0.95826644"
       ry="1.4387302" />
    <rect
       style="fill:#000000;fill-opacity:1;stroke-width:2.05586;stroke-linecap:round"
       id="rect5344-9"
       width="50"
       height="20"
       x="223.99399"
       y="316.1568"
       ry="2.245064" />
    <rect
       style="fill:#000000;fill-opacity:1;stroke-width:0.65012;stroke-linecap:round"
       id="rect5344-0-93"
       width="10"
       height="10"
       x="273.68124"
       y="321.1568"
       ry="0" />
    <rect
       style="fill:#000000;fill-opacity:1;stroke-width:2.05367;stroke-linecap:round"
       id="rect5344-7-2"
       width="49.893623"
       height="19.999868"
       x="-361.12766"
       y="-339.34726"
       ry="2.2450492"
       transform="matrix(-0.99996073,0.00886211,-0.00697678,-0.99997566,0,0)" />
    <rect
       style="fill:#000000;fill-opacity:1;stroke-width:0.645068;stroke-linecap:round"
       id="rect5344-0-9-3"
       width="9.922286"
       height="9.922286"
       x="-311.59839"
       y="-333.53918"
       ry="0"
       transform="rotate(179.54947)" />
    <rect
       style="fill:#000000;fill-opacity:1;stroke-width:1.87409;stroke-linecap:round"
       id="rect5600-09"
       width="5.9868379"
       height="80.448128"
       x="222.47185"
       y="286.35968"
       rx="0"
       ry="0" />
    <rect
       style="fill:#000000;fill-opacity:1;stroke-width:1.87409;stroke-linecap:round"
       id="rect5600-0-4"
       width="5.9868379"
       height="80.448128"
       x="358.23676"
       y="286.3595"
       rx="0"
       ry="0" />
    <path
       style="fill:#000000;fill-opacity:1;stroke-width:2.97833;stroke-linecap:round"
       d="m 364.16349,366.41714 c -2.11496,-1.27176 -3.29039,-8.92941 -5.40165,-10.23319 -14.29971,-8.8306 -28.37316,-12.75612 -64.82459,-12.4696 -30.70576,-0.039 -47.25029,1.50531 -65.93437,13.53399 -1.91744,1.23443 -3.66124,8.0071 -5.49932,9.48225 0.70785,3.35316 1.56399,6.63217 5.2073,8.5176 21.97563,-10.85929 44.00704,-18.99935 66.96171,-21.53683 23.11624,0.58909 43.1062,12.51864 64.32856,21.16639 4.29574,-2.49834 4.77009,-5.47434 5.16236,-8.46061 z"
       id="path5749-4-6"
       sodipodi:nodetypes="cscsccccc" />
    <path
       style="fill:#000000;fill-opacity:1;stroke-width:2.97833;stroke-linecap:round"
       d="m 222.63843,286.48944 c 2.10982,1.28026 3.25444,8.94258 5.36043,10.25484 14.26407,8.88806 28.32161,12.87017 64.7739,12.73031 30.70535,0.16254 47.25596,-1.31519 65.98829,-13.2686 1.92239,-1.22671 3.69342,-7.99231 5.53742,-9.46005 -0.69435,-3.35598 -1.53729,-6.63841 -5.17299,-8.53848 -22.01914,10.77079 -44.08312,18.82214 -67.04781,21.26725 -23.11369,-0.68209 -43.05549,-12.69197 -64.24288,-21.42504 -4.30576,2.48104 -4.79208,5.45511 -5.19636,8.43977 z"
       id="path5749-4-7-3"
       sodipodi:nodetypes="cscsccccc" />
    <rect
       style="fill:#000000;fill-opacity:1;stroke-width:0.913117;stroke-linecap:round"
       id="rect5344-0-2-1-6"
       width="9.8636026"
       height="19.999983"
       x="-302.2381"
       y="-338.56448"
       ry="1.190624"
       rx="1.4353597"
       transform="matrix(-0.99996822,0.00797188,-0.0077559,-0.99996992,0,0)" />
    <rect
       style="fill:#000000;fill-opacity:1;stroke-width:0.919409;stroke-linecap:round"
       id="rect5344-0-2-2"
       width="10"
       height="20"
       x="283.01782"
       y="316.1568"
       ry="1.190625"
       rx="1.4552083" />
    <path
       id="rect6443-4-7"
       style="fill:#47fff8;fill-opacity:1;stroke-width:3;stroke-linecap:round"
       d="m 280.68365,290.69832 h 23.86858 c 0.6437,0 1.60448,0.78801 1.16192,1.47482 -7.09057,11.00387 -7.21346,10.9255 0,20.99772 0.47573,0.66427 -0.51822,1.47481 -1.16192,1.47481 h -23.86858 c -0.6437,0 -1.57009,-0.76701 -1.16192,-1.47481 5.79523,-10.04928 5.8475,-10.06338 0,-20.99772 -0.38531,-0.72049 0.51822,-1.47482 1.16192,-1.47482 z"
       sodipodi:nodetypes="sssssssss" />
    <path
       id="rect6443-49"
       style="fill:#47fff8;fill-opacity:1;stroke-width:3;stroke-linecap:round"
       d="m 280.97641,337.92915 h 23.86858 c 0.6437,0 1.60448,0.78801 1.16192,1.47482 -7.09057,11.00387 -7.21346,10.9255 0,20.99772 0.47573,0.66427 -0.51822,1.47481 -1.16192,1.47481 h -23.86858 c -0.6437,0 -1.57009,-0.76701 -1.16192,-1.47481 5.79523,-10.04928 5.8475,-10.06338 0,-20.99772 -0.38531,-0.72049 0.51822,-1.47482 1.16192,-1.47482 z"
       sodipodi:nodetypes="sssssssss" />
  </g>
</svg>
