<?xml version="1.0" encoding="UTF-8" standalone="no"?>
<!-- Created with Inkscape (http://www.inkscape.org/) -->

<svg
   width="400mm"
   height="400mm"
   viewBox="0 0 400 400"
   version="1.1"
   id="svg5"
   inkscape:version="1.2.1 (9c6d41e410, 2022-07-14)"
   sodipodi:docname="car_sun_blocker_main.svg"
   xmlns:inkscape="http://www.inkscape.org/namespaces/inkscape"
   xmlns:sodipodi="http://sodipodi.sourceforge.net/DTD/sodipodi-0.dtd"
   xmlns="http://www.w3.org/2000/svg"
   xmlns:svg="http://www.w3.org/2000/svg">
  <sodipodi:namedview
     id="namedview7"
     pagecolor="#ffffff"
     bordercolor="#000000"
     borderopacity="0.25"
     inkscape:showpageshadow="2"
     inkscape:pageopacity="0.0"
     inkscape:pagecheckerboard="0"
     inkscape:deskcolor="#d1d1d1"
     inkscape:document-units="mm"
     showgrid="false"
     inkscape:zoom="0.5"
     inkscape:cx="772"
     inkscape:cy="574"
     inkscape:window-width="1450"
     inkscape:window-height="906"
     inkscape:window-x="368"
     inkscape:window-y="54"
     inkscape:window-maximized="0"
     inkscape:current-layer="layer1"
     showguides="false" />
  <defs
     id="defs2">
    <inkscape:path-effect
       effect="mirror_symmetry"
       start_point="284.61395,158.14332"
       end_point="284.61395,189.43179"
       center_point="284.61395,173.78756"
       id="path-effect5109"
       is_visible="true"
       lpeversion="1.2"
       lpesatellites=""
       mode="horizontal"
       discard_orig_path="false"
       fuse_paths="false"
       oposite_fuse="false"
       split_items="false"
       split_open="false"
       link_styles="false" />
    <inkscape:path-effect
       effect="mirror_symmetry"
       start_point="188.49017,158.14332"
       end_point="188.49017,189.43179"
       center_point="188.49017,173.78756"
       id="path-effect5085"
       is_visible="true"
       lpeversion="1.2"
       lpesatellites=""
       mode="vertical"
       discard_orig_path="false"
       fuse_paths="false"
       oposite_fuse="false"
       split_items="false"
       split_open="false"
       link_styles="false" />
    <inkscape:path-effect
       effect="mirror_symmetry"
       start_point="255.14078,59.539463"
       end_point="255.14078,130.27095"
       center_point="255.14078,94.905208"
       id="path-effect5722"
       is_visible="true"
       lpeversion="1.2"
       lpesatellites=""
       mode="vertical"
       discard_orig_path="false"
       fuse_paths="false"
       oposite_fuse="false"
       split_items="false"
       split_open="false"
       link_styles="false" />
    <inkscape:path-effect
       effect="mirror_symmetry"
       start_point="210.70395,59.539463"
       end_point="210.70395,76.539463"
       center_point="210.70395,68.039463"
       id="path-effect5720"
       is_visible="true"
       lpeversion="1.2"
       lpesatellites=""
       mode="horizontal"
       discard_orig_path="false"
       fuse_paths="false"
       oposite_fuse="false"
       split_items="false"
       split_open="false"
       link_styles="false" />
    <inkscape:path-effect
       effect="mirror_symmetry"
       start_point="84.478917,122.12929"
       end_point="257.187,2.6641503"
       center_point="170.83296,62.396718"
       id="path-effect5697"
       is_visible="true"
       lpeversion="1.2"
       lpesatellites=""
       mode="horizontal"
       discard_orig_path="false"
       fuse_paths="false"
       oposite_fuse="false"
       split_items="false"
       split_open="false"
       link_styles="false" />
    <inkscape:path-effect
       effect="mirror_symmetry"
       start_point="47.891117,226.61572"
       end_point="197.89112,276.61572"
       center_point="197.89112,226.61572"
       id="path-effect5693"
       is_visible="true"
       lpeversion="1.2"
       lpesatellites=""
       mode="horizontal"
       discard_orig_path="false"
       fuse_paths="false"
       oposite_fuse="false"
       split_items="false"
       split_open="false"
       link_styles="false" />
  </defs>
  <g
     inkscape:label="Layer 1"
     inkscape:groupmode="layer"
     id="layer1">
    <rect
       style="fill:#000000;stroke-width:2.60093;stroke-linecap:round"
       id="rect234-2-6"
       width="20"
       height="290"
       x="87.879501"
       y="4.0936117"
       ry="11.005973"
       rx="3.4665442" />
    <rect
       style="fill:#000000;fill-opacity:1;stroke-width:3.19075;stroke-linecap:round"
       id="rect348-7"
       width="150"
       height="100"
       x="126.31414"
       y="241.85832"
       rx="6.7245727"
       ry="5.8995357" />
    <rect
       style="fill:#47fff8;fill-opacity:1;stroke-width:1.54429;stroke-linecap:round"
       id="rect5348"
       width="16.089624"
       height="28.615166"
       x="136.94891"
       y="277.83609"
       rx="1.1684276"
       ry="1.5072153" />
    <rect
       style="fill:#47fff8;fill-opacity:1;stroke-width:2.10424;stroke-linecap:round"
       id="rect5348-3"
       width="8.9458742"
       height="95.554749"
       x="288.28384"
       y="-246.36987"
       rx="0.64964885"
       ry="5.0330505"
       transform="rotate(90)" />
    <rect
       style="fill:#47fff8;fill-opacity:1;stroke-width:2.11036;stroke-linecap:round"
       id="rect5348-3-5"
       width="5.6618886"
       height="151.85747"
       x="-357.59082"
       y="-66.375771"
       rx="0.41116604"
       ry="7.9986215"
       transform="matrix(-0.54706895,-0.83708755,0.860316,-0.50976109,0,0)" />
    <rect
       style="fill:#47fff8;fill-opacity:1;stroke-width:2.11036;stroke-linecap:round"
       id="rect5348-3-5-2"
       width="5.6618886"
       height="151.85747"
       x="141.17162"
       y="-393.54013"
       rx="0.41116604"
       ry="7.9986215"
       transform="matrix(-0.48471322,0.87467314,-0.85253135,-0.52267609,0,0)" />
    <rect
       style="fill:#e94747;fill-opacity:1;stroke-width:1.13386;stroke-linecap:round"
       id="rect1478-6"
       width="5"
       height="21"
       x="140.81413"
       y="281.09161"
       rx="0.95826644"
       ry="1.4387302" />
    <rect
       style="fill:#47fff8;fill-opacity:1;stroke-width:1.54429;stroke-linecap:round"
       id="rect5348-8"
       width="16.089624"
       height="28.615166"
       x="243.46291"
       y="277.92004"
       rx="1.1684276"
       ry="1.5072153" />
    <rect
       style="fill:#e94747;fill-opacity:1;stroke-width:1.13386;stroke-linecap:round"
       id="rect1478-9-0"
       width="5"
       height="21"
       x="250.81366"
       y="281.09161"
       rx="0.95826644"
       ry="1.4387302" />
    <text
       xml:space="preserve"
       style="font-size:17.6389px;font-family:Rockwell;-inkscape-font-specification:Rockwell;text-align:center;text-anchor:middle;fill:#e94747;fill-opacity:1;stroke-width:3;stroke-linecap:round"
       x="170.62486"
       y="236.85425"
       id="text2672"><tspan
         sodipodi:role="line"
         id="tspan2670"
         style="stroke-width:3"
         x="170.62486"
         y="236.85425">uncut</tspan></text>
    <ellipse
       style="fill:#47fff8;fill-opacity:1;stroke-width:3.45282;stroke-linecap:round"
       id="path5491"
       cx="202.42896"
       cy="292.09534"
       rx="25.796875"
       ry="21.034374" />
    <ellipse
       style="fill:#ffffff;fill-opacity:1;stroke-width:2.82453;stroke-linecap:round"
       id="path5491-8"
       cx="202.69354"
       cy="291.96301"
       rx="20.637501"
       ry="17.594791" />
    <rect
       style="fill:#000000;fill-opacity:1;stroke-width:3.19075;stroke-linecap:round"
       id="rect348-7-8"
       width="150"
       height="100"
       x="125.18488"
       y="114.63802"
       rx="6.7245727"
       ry="5.8995357" />
    <rect
       style="fill:#e94747;fill-opacity:1;stroke-width:1.13386;stroke-linecap:round"
       id="rect1478-6-2"
       width="5"
       height="21"
       x="139.68486"
       y="153.87131"
       rx="0.95826644"
       ry="1.4387302" />
    <rect
       style="fill:#e94747;fill-opacity:1;stroke-width:1.13386;stroke-linecap:round"
       id="rect1478-9-0-0"
       width="5"
       height="21"
       x="249.68439"
       y="153.87131"
       rx="0.95826644"
       ry="1.4387302" />
    <g
       id="g5596">
      <path
         id="rect5348-88"
         style="fill:#47fff8;stroke-width:1.54429;stroke-linecap:round"
         d="m 141.23995,27.544057 c -0.75963,-0.01279 -1.3432,0.21081 -1.6061,0.68523 l -0.57516,1.03766 c -0.60092,1.08437 0.70764,3.05615 2.93367,4.42092 l 40.77581,24.99899 a 25.796875,21.034374 0 0 0 -2.58847,6.06836 h -21.22765 c -1.04225,0 -2.00819,0.04059 -2.80965,0.11007 v -9.05061 c 0,-0.83496 -0.52109,-1.5074 -1.1684,-1.5074 h -13.75265 c -0.64731,0 -1.1684,0.67244 -1.1684,1.5074 v 25.60051 c 0,0.835 0.52109,1.5074 1.1684,1.5074 H 154.974 c 0.64731,0 1.1684,-0.6724 1.1684,-1.5074 v -7.82433 c 0.80146,0.06949 1.7674,0.11007 2.80965,0.11007 h 21.58111 a 25.796875,21.034374 0 0 0 2.38125,4.90203 l -41.11945,24.364403 c -1.80924,1.07203 -2.62032,2.92273 -1.81849,4.14962 l 0.20308,0.31057 c 0.80183,1.22691 2.90368,1.3516 4.71289,0.27957 L 186.7364,82.913287 a 25.796875,21.034374 0 0 0 18.79679,6.68796 25.796875,21.034374 0 0 0 17.95859,-5.94692 l 39.92728,24.479123 c 2.22608,1.36478 4.50213,1.59029 5.10305,0.50592 l 0.57464,-1.03767 c 0.60092,-1.08434 -0.70711,-3.05617 -2.93315,-4.42091 L 227.5489,79.506777 a 25.796875,21.034374 0 0 0 2.9838,-5.80585 h 13.90819 c 0.76362,0 1.4788,-0.02307 2.12597,-0.06201 v 7.8605 c 0,0.835 0.52109,1.5074 1.1684,1.5074 h 13.75265 c 0.64731,0 1.16892,-0.6724 1.16892,-1.5074 v -25.60102 c 0,-0.835 -0.52161,-1.50688 -1.16892,-1.50688 h -13.75265 c -0.64731,0 -1.1684,0.67188 -1.1684,1.50688 v 8.91884 c -0.64717,-0.03895 -1.36235,-0.06202 -2.12597,-0.06202 h -13.55421 a 25.796875,21.034374 0 0 0 -2.78639,-6.35103 l 40.90603,-24.23831 c 1.8092,-1.07202 2.62032,-2.92272 1.81849,-4.14962 l -0.20257,-0.31006 c -0.45103,-0.69013 -1.31344,-1.03187 -2.30374,-1.00769 -0.77023,0.01881 -1.61813,0.25911 -2.40967,0.72812 l -41.68428,24.69875 a 25.796875,21.034374 0 0 0 -18.69136,-6.59288 25.796875,21.034374 0 0 0 -19.00194,6.82698 l -41.79487,-25.62376 c -1.25216,-0.76769 -2.51971,-1.17522 -3.49643,-1.19166 z m 64.60588,23.52053 a 21.695833,17.727083 0 0 1 21.69583,17.72708 21.695833,17.727083 0 0 1 -21.69583,17.72708 21.695833,17.727083 0 0 1 -21.69583,-17.72708 21.695833,17.727083 0 0 1 21.69583,-17.72708 z" />
    </g>
  </g>
</svg>
