<?xml version="1.0" encoding="UTF-8" standalone="no"?>
<!-- Created with Inkscape (http://www.inkscape.org/) -->

<svg
   width="400mm"
   height="400mm"
   viewBox="0 0 400 400"
   version="1.1"
   id="svg5"
   inkscape:version="1.2.1 (9c6d41e410, 2022-07-14)"
   sodipodi:docname="car_sun_blocker_main.svg"
   xmlns:inkscape="http://www.inkscape.org/namespaces/inkscape"
   xmlns:sodipodi="http://sodipodi.sourceforge.net/DTD/sodipodi-0.dtd"
   xmlns="http://www.w3.org/2000/svg"
   xmlns:svg="http://www.w3.org/2000/svg">
  <sodipodi:namedview
     id="namedview7"
     pagecolor="#ffffff"
     bordercolor="#000000"
     borderopacity="0.25"
     inkscape:showpageshadow="2"
     inkscape:pageopacity="0.0"
     inkscape:pagecheckerboard="0"
     inkscape:deskcolor="#d1d1d1"
     inkscape:document-units="mm"
     showgrid="false"
     inkscape:zoom="0.35355339"
     inkscape:cx="510.5311"
     inkscape:cy="903.68247"
     inkscape:window-width="1920"
     inkscape:window-height="991"
     inkscape:window-x="-9"
     inkscape:window-y="-9"
     inkscape:window-maximized="1"
     inkscape:current-layer="layer1"
     showguides="false" />
  <defs
     id="defs2">
    <inkscape:path-effect
       effect="mirror_symmetry"
       start_point="284.61395,158.14332"
       end_point="284.61395,189.43179"
       center_point="284.61395,173.78756"
       id="path-effect5109"
       is_visible="true"
       lpeversion="1.2"
       lpesatellites=""
       mode="horizontal"
       discard_orig_path="false"
       fuse_paths="false"
       oposite_fuse="false"
       split_items="false"
       split_open="false"
       link_styles="false" />
    <inkscape:path-effect
       effect="mirror_symmetry"
       start_point="188.49017,158.14332"
       end_point="188.49017,189.43179"
       center_point="188.49017,173.78756"
       id="path-effect5085"
       is_visible="true"
       lpeversion="1.2"
       lpesatellites=""
       mode="vertical"
       discard_orig_path="false"
       fuse_paths="false"
       oposite_fuse="false"
       split_items="false"
       split_open="false"
       link_styles="false" />
    <inkscape:path-effect
       effect="mirror_symmetry"
       start_point="255.14078,59.539463"
       end_point="255.14078,130.27095"
       center_point="255.14078,94.905208"
       id="path-effect5722"
       is_visible="true"
       lpeversion="1.2"
       lpesatellites=""
       mode="vertical"
       discard_orig_path="false"
       fuse_paths="false"
       oposite_fuse="false"
       split_items="false"
       split_open="false"
       link_styles="false" />
    <inkscape:path-effect
       effect="mirror_symmetry"
       start_point="210.70395,59.539463"
       end_point="210.70395,76.539463"
       center_point="210.70395,68.039463"
       id="path-effect5720"
       is_visible="true"
       lpeversion="1.2"
       lpesatellites=""
       mode="horizontal"
       discard_orig_path="false"
       fuse_paths="false"
       oposite_fuse="false"
       split_items="false"
       split_open="false"
       link_styles="false" />
    <inkscape:path-effect
       effect="mirror_symmetry"
       start_point="84.478917,122.12929"
       end_point="257.187,2.6641503"
       center_point="170.83296,62.396718"
       id="path-effect5697"
       is_visible="true"
       lpeversion="1.2"
       lpesatellites=""
       mode="horizontal"
       discard_orig_path="false"
       fuse_paths="false"
       oposite_fuse="false"
       split_items="false"
       split_open="false"
       link_styles="false" />
    <inkscape:path-effect
       effect="mirror_symmetry"
       start_point="47.891117,226.61572"
       end_point="197.89112,276.61572"
       center_point="197.89112,226.61572"
       id="path-effect5693"
       is_visible="true"
       lpeversion="1.2"
       lpesatellites=""
       mode="horizontal"
       discard_orig_path="false"
       fuse_paths="false"
       oposite_fuse="false"
       split_items="false"
       split_open="false"
       link_styles="false" />
  </defs>
  <g
     inkscape:label="Layer 1"
     inkscape:groupmode="layer"
     id="layer1">
    <rect
       style="fill:#000000;stroke-width:2.60093;stroke-linecap:round"
       id="rect234-2-6"
       width="20"
       height="290"
       x="13.044034"
       y="8.5837402"
       ry="11.005973"
       rx="3.4665442" />
    <rect
       style="fill:#000000;fill-opacity:1;stroke-width:3.72101;stroke-linecap:round"
       id="rect348-7"
       width="170"
       height="120"
       x="38.485001"
       y="270.772"
       rx="7.621182"
       ry="7.0794425" />
    <rect
       style="fill:#47fff8;fill-opacity:1;stroke-width:1.82074;stroke-linecap:round"
       id="rect5348"
       width="20"
       height="32"
       x="55.378254"
       y="314.50549"
       rx="1.4523988"
       ry="1.685501" />
    <rect
       style="fill:#e94747;fill-opacity:1;stroke-width:1.13386;stroke-linecap:round"
       id="rect1478-6"
       width="5"
       height="21"
       x="62.985245"
       y="320.00607"
       rx="0.95826644"
       ry="1.4387302" />
    <rect
       style="fill:#47fff8;fill-opacity:1;stroke-width:1.82074;stroke-linecap:round"
       id="rect5348-8"
       width="20"
       height="32"
       x="165.63402"
       y="314.58945"
       rx="1.4523988"
       ry="1.685501" />
    <rect
       style="fill:#e94747;fill-opacity:1;stroke-width:1.13386;stroke-linecap:round"
       id="rect1478-9-0"
       width="5"
       height="21"
       x="172.98477"
       y="320.00607"
       rx="0.95826644"
       ry="1.4387302" />
    <text
       xml:space="preserve"
       style="font-size:17.6389px;font-family:Rockwell;-inkscape-font-specification:Rockwell;text-align:center;text-anchor:middle;fill:#e94747;fill-opacity:1;stroke-width:3;stroke-linecap:round"
       x="93.170151"
       y="262.29831"
       id="text2672"><tspan
         sodipodi:role="line"
         id="tspan2670"
         style="stroke-width:3"
         x="93.170151"
         y="262.29831">underneath</tspan></text>
    <text
       xml:space="preserve"
       style="font-size:17.6389px;font-family:Rockwell;-inkscape-font-specification:Rockwell;text-align:center;text-anchor:middle;fill:#e94747;fill-opacity:1;stroke-width:3;stroke-linecap:round"
       x="62.961048"
       y="125.58508"
       id="text2672-3"><tspan
         sodipodi:role="line"
         id="tspan2670-1"
         style="stroke-width:3"
         x="62.961048"
         y="125.58508">mid</tspan></text>
    <text
       xml:space="preserve"
       style="font-size:17.6389px;font-family:Rockwell;-inkscape-font-specification:Rockwell;text-align:center;text-anchor:middle;fill:#e94747;fill-opacity:1;stroke-width:3;stroke-linecap:round"
       x="241.88173"
       y="22.097015"
       id="text2672-3-6"><tspan
         sodipodi:role="line"
         id="tspan2670-1-9"
         style="stroke-width:3"
         x="241.88173"
         y="22.097015">top</tspan></text>
    <ellipse
       style="fill:#47fff8;fill-opacity:1;stroke-width:2.37141;stroke-linecap:round"
       id="path5491"
       cx="120.10214"
       cy="331.80356"
       rx="16.536459"
       ry="15.478125" />
    <path
       id="rect348-7-4"
       style="fill:#000000;fill-opacity:1;stroke-width:3.72101;stroke-linecap:round"
       d="M 230.06709 264.90838 C 225.84497 264.90838 222.44585 268.06554 222.44585 271.98753 L 222.44585 377.82913 C 222.44585 381.75114 225.84497 384.90829 230.06709 384.90829 L 384.82457 384.90829 C 389.0467 384.90829 392.44581 381.75114 392.44581 377.82913 L 392.44581 271.98753 C 392.44581 268.06554 389.0467 264.90838 384.82457 264.90838 L 230.06709 264.90838 z M 245.83719 311.6001 L 252.00426 311.6001 C 253.06601 311.6001 253.92042 312.39456 253.92042 313.38139 L 253.92042 335.81878 C 253.92042 336.80561 253.06601 337.60007 252.00426 337.60007 L 245.83719 337.60007 C 244.77543 337.60007 243.92051 336.80561 243.92051 335.81878 L 243.92051 313.38139 C 243.92051 312.39456 244.77543 311.6001 245.83719 311.6001 z M 355.99171 311.6001 L 362.15877 311.6001 C 363.22053 311.6001 364.07493 312.39456 364.07493 313.38139 L 364.07493 335.81878 C 364.07493 336.80561 363.22053 337.60007 362.15877 337.60007 L 355.99171 337.60007 C 354.92995 337.60007 354.07503 336.80561 354.07503 335.81878 L 354.07503 313.38139 C 354.07503 312.39456 354.92995 311.6001 355.99171 311.6001 z " />
    <path
       id="rect348-7-7-2"
       style="opacity:1;fill:#333333;fill-opacity:1;stroke-width:3.45623;stroke-linecap:round"
       d="m 48.931347,132.03895 c -3.97377,0 -7.17269,2.89435 -7.17269,6.48953 v 97.02095 c 0,3.59516 3.19892,6.48952 7.17269,6.48952 H 194.58551 c 3.97377,0 7.17321,-2.89436 7.17321,-6.48952 v -97.02095 c 0,-3.59518 -3.19944,-6.48953 -7.17321,-6.48953 z m 13.28549,44.23348 h 3.08353 c 0.53088,0 0.95808,0.64161 0.95808,1.43867 v 18.1224 c 0,0.79706 -0.4272,1.43868 -0.95808,1.43868 h -3.08353 c -0.53088,0 -0.95808,-0.64162 -0.95808,-1.43868 v -18.1224 c 0,-0.79706 0.4272,-1.43867 0.95808,-1.43867 z m 109.999503,0 h 3.08353 c 0.53088,0 0.95808,0.64161 0.95808,1.43867 v 18.1224 c 0,0.79706 -0.4272,1.43868 -0.95808,1.43868 h -3.08353 c -0.53088,0 -0.95808,-0.64162 -0.95808,-1.43868 v -18.1224 c 0,-0.79706 0.4272,-1.43867 0.95808,-1.43867 z" />
    <path
       id="rect348-7-7-2-8"
       style="fill:#0ef4eb;fill-opacity:1;stroke-width:3.45623;stroke-linecap:round"
       d="m 230.35203,28.837795 c -1.74642,0 -2.94504,1.18578 -2.94504,2.51406 v 99.767555 c 0,1.32826 1.19862,2.51147 2.94504,2.51147 h 0.72502 V 28.837795 Z m 2.7249,0 V 133.63088 h 2.00039 V 28.837795 Z m 4.00027,0 V 133.63088 h 1.99988 V 28.837795 Z m 3.99976,0 V 133.63088 h 2.00039 V 28.837795 Z m 4.00027,0 v 40.988197 h 1.99988 V 28.837795 Z m 3.99976,0 V 133.63088 h 2.00039 V 28.837795 Z m 4.00027,0 V 133.63088 h 1.99988 V 28.837795 Z m 3.99975,0 V 133.63088 h 1.99988 V 28.837795 Z m 4.00028,0 V 133.63088 h 1.99988 V 28.837795 Z m 3.99975,0 V 133.63088 h 1.99988 V 28.837795 Z m 4.00028,0 V 133.63088 h 1.99987 V 28.837795 Z m 3.99975,0 V 133.63088 h 1.99988 V 28.837795 Z m 4.00027,0 V 133.63088 h 1.99988 V 28.837795 Z m 3.99976,0 V 133.63088 h 1.99988 V 28.837795 Z m 4.00027,0 V 133.63088 h 1.99988 V 28.837795 Z m 3.99976,0 V 133.63088 h 1.99988 V 28.837795 Z m 3.99975,0 V 133.63088 h 2.0004 V 28.837795 Z m 4.00028,0 V 133.63088 h 1.99987 V 28.837795 Z m 3.99975,0 V 133.63088 h 2.0004 V 28.837795 Z m 4.00028,0 V 133.63088 h 1.99987 V 28.837795 Z m 3.99975,0 V 133.63088 h 2.0004 V 28.837795 Z m 4.00027,0 V 133.63088 h 1.99988 V 28.837795 Z m 3.99976,0 V 133.63088 h 2.00039 V 28.837795 Z m 4.00027,0 V 133.63088 h 1.99988 V 28.837795 Z m 3.99976,0 V 133.63088 h 1.99988 V 28.837795 Z m 4.00027,0 V 133.63088 h 1.99988 V 28.837795 Z m 3.99976,0 V 133.63088 h 1.99987 V 28.837795 Z m 4.00027,0 V 133.63088 h 1.99988 V 28.837795 Z m 3.99976,0 V 133.63088 h 1.99987 V 28.837795 Z m 4.00027,0 V 133.63088 h 1.99988 V 28.837795 Z m 3.99975,0 V 133.63088 h 1.99988 V 28.837795 Z m 4.00028,0 V 133.63088 h 1.99987 V 90.825742 h -0.14882 c -0.53088,0 -0.95808,-0.64161 -0.95808,-1.43867 v -18.12241 c 0,-0.79706 0.4272,-1.43867 0.95808,-1.43867 h 0.14882 V 28.837795 Z m 3.99975,0 v 40.988197 h 0.93483 c 0.53088,0 0.95808,0.64161 0.95808,1.43867 v 18.12241 c 0,0.79706 -0.4272,1.43867 -0.95808,1.43867 h -0.93483 v 42.805138 h 1.99988 V 28.837795 Z m 3.99976,0 V 133.63088 h 2.00039 V 28.837795 Z m 4.00027,0 V 133.63088 h 1.99988 V 28.837795 Z m 3.99976,0 V 133.63088 h 2.00039 V 28.837795 Z m 4.00027,0 V 133.63088 h 1.99988 V 28.837795 Z m 3.99976,0 V 133.63088 h 1.11931 c 1.74639,0 2.94504,-1.18321 2.94504,-2.51147 V 31.351855 c 0,-1.32828 -1.19865,-2.51406 -2.94504,-2.51406 z m -131.9997,61.987947 v 42.805138 h 1.99988 V 90.825742 Z" />
    <rect
       style="fill:#000000;fill-opacity:1;stroke-width:3.72101;stroke-linecap:round"
       id="rect348-7-4-5"
       width="170"
       height="120"
       x="212.47098"
       y="138.68817"
       rx="7.621182"
       ry="7.0794425" />
    <rect
       style="fill:#e94747;fill-opacity:1;stroke-width:1.78423;stroke-linecap:round"
       id="rect1478-6-0-7"
       width="10"
       height="26"
       x="233.94569"
       y="185.05173"
       rx="1.9165329"
       ry="1.781285" />
    <rect
       style="fill:#e94747;fill-opacity:1;stroke-width:1.78423;stroke-linecap:round"
       id="rect1478-9-0-7-9"
       width="10"
       height="26"
       x="344.10022"
       y="185.39383"
       rx="1.9165329"
       ry="1.781285" />
  </g>
</svg>
