<?xml version="1.0" encoding="UTF-8" standalone="no"?>
<!-- Created with Inkscape (http://www.inkscape.org/) -->

<svg
   width="600mm"
   height="400mm"
   viewBox="0 0 600 400"
   version="1.1"
   id="svg5"
   inkscape:version="1.2.1 (9c6d41e410, 2022-07-14)"
   sodipodi:docname="car_sun_blocker_main.svg"
   xmlns:inkscape="http://www.inkscape.org/namespaces/inkscape"
   xmlns:sodipodi="http://sodipodi.sourceforge.net/DTD/sodipodi-0.dtd"
   xmlns="http://www.w3.org/2000/svg"
   xmlns:svg="http://www.w3.org/2000/svg">
  <sodipodi:namedview
     id="namedview7"
     pagecolor="#ffffff"
     bordercolor="#000000"
     borderopacity="0.25"
     inkscape:showpageshadow="2"
     inkscape:pageopacity="0.0"
     inkscape:pagecheckerboard="0"
     inkscape:deskcolor="#d1d1d1"
     inkscape:document-units="mm"
     showgrid="false"
     inkscape:zoom="0.3687663"
     inkscape:cx="1019.616"
     inkscape:cy="736.23865"
     inkscape:window-width="1920"
     inkscape:window-height="991"
     inkscape:window-x="-9"
     inkscape:window-y="-9"
     inkscape:window-maximized="1"
     inkscape:current-layer="layer6"
     showguides="false" />
  <defs
     id="defs2">
    <inkscape:path-effect
       effect="mirror_symmetry"
       start_point="284.61395,158.14332"
       end_point="284.61395,189.43179"
       center_point="284.61395,173.78756"
       id="path-effect5109"
       is_visible="true"
       lpeversion="1.2"
       lpesatellites=""
       mode="horizontal"
       discard_orig_path="false"
       fuse_paths="false"
       oposite_fuse="false"
       split_items="false"
       split_open="false"
       link_styles="false" />
    <inkscape:path-effect
       effect="mirror_symmetry"
       start_point="188.49017,158.14332"
       end_point="188.49017,189.43179"
       center_point="188.49017,173.78756"
       id="path-effect5085"
       is_visible="true"
       lpeversion="1.2"
       lpesatellites=""
       mode="vertical"
       discard_orig_path="false"
       fuse_paths="false"
       oposite_fuse="false"
       split_items="false"
       split_open="false"
       link_styles="false" />
    <inkscape:path-effect
       effect="mirror_symmetry"
       start_point="255.14078,59.539463"
       end_point="255.14078,130.27095"
       center_point="255.14078,94.905208"
       id="path-effect5722"
       is_visible="true"
       lpeversion="1.2"
       lpesatellites=""
       mode="vertical"
       discard_orig_path="false"
       fuse_paths="false"
       oposite_fuse="false"
       split_items="false"
       split_open="false"
       link_styles="false" />
    <inkscape:path-effect
       effect="mirror_symmetry"
       start_point="210.70395,59.539463"
       end_point="210.70395,76.539463"
       center_point="210.70395,68.039463"
       id="path-effect5720"
       is_visible="true"
       lpeversion="1.2"
       lpesatellites=""
       mode="horizontal"
       discard_orig_path="false"
       fuse_paths="false"
       oposite_fuse="false"
       split_items="false"
       split_open="false"
       link_styles="false" />
    <inkscape:path-effect
       effect="mirror_symmetry"
       start_point="84.478917,122.12929"
       end_point="257.187,2.6641503"
       center_point="170.83296,62.396718"
       id="path-effect5697"
       is_visible="true"
       lpeversion="1.2"
       lpesatellites=""
       mode="horizontal"
       discard_orig_path="false"
       fuse_paths="false"
       oposite_fuse="false"
       split_items="false"
       split_open="false"
       link_styles="false" />
    <inkscape:path-effect
       effect="mirror_symmetry"
       start_point="47.891117,226.61572"
       end_point="197.89112,276.61572"
       center_point="197.89112,226.61572"
       id="path-effect5693"
       is_visible="true"
       lpeversion="1.2"
       lpesatellites=""
       mode="horizontal"
       discard_orig_path="false"
       fuse_paths="false"
       oposite_fuse="false"
       split_items="false"
       split_open="false"
       link_styles="false" />
  </defs>
  <g
     inkscape:groupmode="layer"
     id="layer2"
     inkscape:label="top_layer"
     style="display:inline">
    <rect
       style="display:inline;fill:#000000;fill-opacity:1;stroke-width:1.7076;stroke-linecap:round"
       id="rect234-2-6-0-4-6"
       width="20"
       height="125"
       x="76.983475"
       y="172.00937"
       ry="4.7439537"
       rx="3.4665442" />
    <rect
       style="display:inline;fill:#000000;fill-opacity:1;stroke-width:2.6578;stroke-linecap:round"
       id="rect5891-00-5"
       width="12"
       height="10"
       x="80.983513"
       y="162.14813"
       rx="0"
       ry="0" />
    <rect
       style="display:inline;fill:#000000;fill-opacity:1;stroke-width:3.43121;stroke-linecap:round"
       id="rect5891-00-5-2"
       width="20"
       height="10"
       x="76.51268"
       y="152.62575"
       rx="1.0444747"
       ry="1.3573865" />
    <path
       id="rect234-2-6-0-4-6-4"
       style="display:inline;fill:#000000;fill-opacity:1;stroke-width:1.7076;stroke-linecap:round"
       d="m 33.4052,151.29206 c -0.578638,0 -1.044381,0.60555 -1.044381,1.35754 v 7.28482 c 0,0.752 0.465743,1.35754 1.044381,1.35754 h 3.426664 v 9.38393 h -0.5333 c -1.920464,0 -3.466972,2.11575 -3.466972,4.74389 V 290.9316 c 0,2.62814 1.546508,4.74389 3.466972,4.74389 h 13.066902 c 1.920464,0 3.466455,-2.11575 3.466455,-4.74389 V 175.41978 c 0,-2.62814 -1.545991,-4.74389 -3.466455,-4.74389 h -0.533817 v -9.38393 h 2.484603 c 0.578638,0 1.044897,-0.60554 1.044897,-1.35754 v -7.28482 c 0,-0.75199 -0.466259,-1.35754 -1.044897,-1.35754 z" />
    <rect
       style="display:inline;fill:#000000;stroke-width:2.02046;stroke-linecap:round"
       id="rect234-2-6-0-4"
       width="20"
       height="175"
       x="54.758446"
       y="10.161289"
       ry="6.6415353"
       rx="3.4665442" />
    <rect
       style="display:inline;fill:#ff0000;fill-opacity:1;stroke-width:1.87935;stroke-linecap:round"
       id="rect5891-00"
       width="12"
       height="5"
       x="58.758446"
       y="165.161"
       rx="0.62668484"
       ry="0.67869323" />
    <rect
       style="display:inline;fill:#ff0000;fill-opacity:1;stroke-width:1.87935;stroke-linecap:round"
       id="rect5891-00-0"
       width="12"
       height="5"
       x="58.758511"
       y="145.161"
       rx="0.62668484"
       ry="0.67869323" />
    <rect
       style="display:inline;fill:#ff0000;fill-opacity:1;stroke-width:1.87935;stroke-linecap:round"
       id="rect5891-00-0-3"
       width="12"
       height="5"
       x="58.758511"
       y="125.161"
       rx="0.62668484"
       ry="0.67869323" />
    <rect
       style="display:inline;fill:#ff0000;fill-opacity:1;stroke-width:1.87935;stroke-linecap:round"
       id="rect5891-00-0-3-6"
       width="12"
       height="5"
       x="58.758999"
       y="105"
       rx="0.62668484"
       ry="0.67869323" />
    <path
       id="rect234-2-6-0-4-8"
       style="display:inline;fill:#000000;stroke-width:2.02046;stroke-linecap:round"
       d="m 8.9503581,7.9840088 c -1.9204579,0 -3.4664551,2.9620602 -3.4664551,6.6414552 V 176.34221 c 0,3.67937 1.5459972,6.64145 3.4664551,6.64145 H 22.017261 c 1.920457,0 3.466455,-2.96208 3.466455,-6.64145 V 14.625464 c 0,-3.679395 -1.545998,-6.6414552 -3.466455,-6.6414552 z M 10.111011,102.82266 h 10.746631 c 0.34718,0 0.626835,0.30252 0.626835,0.67852 v 3.64267 c 0,0.37599 -0.279655,0.67851 -0.626835,0.67851 H 10.111011 c -0.347183,0 -0.6268354,-0.30252 -0.6268354,-0.67851 v -3.64267 c 0,-0.376 0.2796524,-0.67852 0.6268354,-0.67852 z m -5.17e-4,20.16105 h 10.746631 c 0.347181,0 0.626835,0.30251 0.626835,0.67851 v 3.64267 c 0,0.376 -0.279654,0.67851 -0.626835,0.67851 H 10.110494 c -0.3471825,0 -0.6263184,-0.30251 -0.6263184,-0.67851 v -3.64267 c 0,-0.376 0.2791359,-0.67851 0.6263184,-0.67851 z m 0,19.99981 h 10.746631 c 0.347182,0 0.626835,0.30252 0.626835,0.67851 v 3.64267 c 0,0.376 -0.279653,0.67903 -0.626835,0.67903 H 10.110494 c -0.3471828,0 -0.6263184,-0.30303 -0.6263184,-0.67903 v -3.64267 c 0,-0.37599 0.2791356,-0.67851 0.6263184,-0.67851 z m 0,19.99981 h 10.746631 c 0.347183,0 0.626835,0.30304 0.626835,0.67903 v 3.64267 c 0,0.376 -0.279652,0.67851 -0.626835,0.67851 H 10.110494 c -0.3471831,0 -0.6268351,-0.30251 -0.6268351,-0.67851 v -3.64267 c 0,-0.37599 0.279652,-0.67903 0.6268351,-0.67903 z" />
    <rect
       style="display:inline;fill:#000000;stroke-width:2.60093;stroke-linecap:round"
       id="rect234-2-6"
       width="20"
       height="290"
       x="97.710754"
       y="8.5837402"
       ry="11.005973"
       rx="3.4665442" />
  </g>
  <g
     inkscape:groupmode="layer"
     id="layer3"
     inkscape:label="bot_layer"
     style="display:inline">
    <rect
       style="display:inline;fill:#000000;fill-opacity:1;stroke-width:3.45623;stroke-linecap:round"
       id="rect348-7"
       width="160"
       height="110"
       x="124.73923"
       y="275.53452"
       rx="7.1728773"
       ry="6.4894891" />
    <rect
       style="display:inline;fill:#e94747;fill-opacity:1;stroke-width:0.878284;stroke-linecap:round"
       id="rect1478-6"
       width="3"
       height="21"
       x="147.21201"
       y="319.4769"
       rx="0.57495987"
       ry="1.4387302" />
    <rect
       style="display:inline;fill:#505050;fill-opacity:1;stroke-width:3.45623;stroke-linecap:round"
       id="rect348-7-7"
       width="160"
       height="110"
       x="328.02341"
       y="277.11209"
       rx="7.1728773"
       ry="6.4894891" />
    <rect
       style="display:inline;fill:#e94747;fill-opacity:1;stroke-width:0.878284;stroke-linecap:round"
       id="rect1478-9-0"
       width="3"
       height="21"
       x="257.34399"
       y="319.3446"
       rx="0.57495987"
       ry="1.4387302" />
    <path
       id="rect348-7-9"
       style="display:inline;fill:#000000;fill-opacity:1;stroke-width:3.45623;stroke-linecap:round"
       d="m 133.10815,133.90345 c -3.97376,0 -7.17268,2.89385 -7.17268,6.48901 v 97.02147 c 0,3.59518 3.19892,6.48953 7.17268,6.48953 h 145.65468 c 3.97377,0 7.17269,-2.89435 7.17269,-6.48953 v -97.02147 c 0,-3.59516 -3.19892,-6.48901 -7.17269,-6.48901 z m 126.0073,43.80973 h 1.85002 c 0.31852,0 0.57464,0.64162 0.57464,1.43868 v 18.12292 c 0,0.79706 -0.25612,1.43867 -0.57464,1.43867 h -1.85002 c -0.31853,0 -0.57516,-0.64161 -0.57516,-1.43867 v -18.12292 c 0,-0.79706 0.25663,-1.43868 0.57516,-1.43868 z m -110.1323,0.1323 h 1.85002 c 0.31853,0 0.57516,0.64161 0.57516,1.43867 v 18.12292 c 0,0.79706 -0.25663,1.43867 -0.57516,1.43867 h -1.85002 c -0.31852,0 -0.57515,-0.64161 -0.57515,-1.43867 v -18.12292 c 0,-0.79706 0.25663,-1.43867 0.57515,-1.43867 z" />
    <path
       id="rect348-7-7-7"
       style="display:inline;fill:#505050;fill-opacity:1;stroke-width:3.45623;stroke-linecap:round"
       d="M 333.67627 143.08377 C 329.7025 143.08377 326.50358 145.97813 326.50358 149.5733 L 326.50358 178.14778 C 326.87029 178.13133 328.8286 178.11884 331.48674 178.11316 L 331.48674 178.60202 C 328.8264 178.59651 326.86277 178.58441 326.50358 178.56791 L 326.50358 198.1476 C 326.83646 198.13094 328.81727 198.11876 331.48674 198.11297 L 331.48674 198.60235 C 328.8146 198.59674 326.82804 198.58399 326.50358 198.56721 L 326.50358 218.14689 C 326.86848 218.13049 328.82798 218.11835 331.48674 218.11278 L 331.48674 218.60164 C 328.82579 218.59625 326.86095 218.58407 326.50358 218.56754 L 326.50358 246.59425 C 326.50358 250.18942 329.7025 253.08378 333.67627 253.08378 L 346.48944 253.08378 C 346.47024 252.52341 346.45482 250.78295 346.45482 248.32955 L 346.45482 247.90632 L 346.95453 247.90632 L 346.95453 248.32955 C 346.95453 250.78295 346.93911 252.52341 346.91991 253.08378 L 366.48977 253.08378 C 366.47054 252.52571 366.45515 250.78231 366.45515 248.32644 L 366.45515 247.90632 L 366.95486 247.90632 L 366.95486 248.32644 C 366.95486 250.78231 366.93947 252.52571 366.92024 253.08378 L 386.48959 253.08378 C 386.4704 252.52571 386.45496 250.78231 386.45496 248.32644 L 386.45496 247.90632 L 386.95468 247.90632 L 386.95468 248.32644 C 386.95468 250.78231 386.93928 252.52571 386.92005 253.08378 L 406.4894 253.08378 C 406.47021 252.52571 406.45478 250.78231 406.45478 248.32644 L 406.45478 247.90632 L 406.955 247.90632 L 406.955 248.32644 C 406.955 250.78231 406.93961 252.52571 406.92038 253.08378 L 426.48973 253.08378 C 426.47054 252.52571 426.45511 250.78231 426.45511 248.32644 L 426.45511 247.90632 L 426.95482 247.90632 L 426.95482 248.32644 C 426.95482 250.78231 426.93943 252.52571 426.92019 253.08378 L 446.48954 253.08378 C 446.47031 252.52571 446.45492 250.78231 446.45492 248.32644 L 446.45492 247.90632 L 446.95515 247.90632 L 446.95515 248.32644 C 446.95515 250.78231 446.93935 252.52571 446.92001 253.08378 L 466.48936 253.08378 C 466.47012 252.52571 466.45473 250.78231 466.45473 248.32644 L 466.45473 247.90632 L 466.95496 247.90632 L 466.95496 248.32644 C 466.95496 250.78231 466.93957 252.52571 466.92034 253.08378 L 479.33043 253.08378 C 483.3042 253.08378 486.50364 250.18942 486.50364 246.59425 L 486.50364 218.56909 C 485.7273 218.58295 483.99336 218.59377 481.48637 218.59803 L 481.48637 218.1071 C 483.99601 218.11118 485.73277 218.12219 486.50364 218.13604 L 486.50364 198.56979 C 485.7066 198.58362 483.98254 198.59456 481.48637 198.59873 L 481.48637 198.10729 C 483.98486 198.11128 485.71147 198.12204 486.50364 198.13571 L 486.50364 178.56895 C 485.72817 178.58297 483.99383 178.59414 481.48637 178.5984 L 481.48637 178.10696 C 483.99654 178.11106 485.73367 178.12204 486.50364 178.1359 L 486.50364 149.5733 C 486.50364 145.97813 483.3042 143.08377 479.33043 143.08377 L 466.92137 143.08377 C 466.93963 143.71767 466.95444 145.38078 466.95444 147.75532 L 466.95444 147.90622 L 466.45422 147.90622 L 466.45422 147.75532 C 466.45422 145.38078 466.46903 143.71767 466.48729 143.08377 L 446.92156 143.08377 C 446.93991 143.71767 446.95463 145.38078 446.95463 147.75532 L 446.95463 147.90622 L 446.4544 147.90622 L 446.4544 147.75532 C 446.4544 145.38077 446.46922 143.71767 446.48748 143.08377 L 426.92123 143.08377 C 426.93945 143.71767 426.9543 145.38077 426.9543 147.75532 L 426.9543 147.90622 L 426.45459 147.90622 L 426.45459 147.75532 C 426.45459 145.38077 426.46941 143.71767 426.48766 143.08377 L 406.92142 143.08377 C 406.93967 143.71767 406.95449 145.38077 406.95449 147.75532 L 406.95449 147.90622 L 406.45478 147.90622 L 406.45478 147.75532 C 406.45478 145.38077 406.4692 143.71767 406.48733 143.08377 L 386.9216 143.08377 C 386.93986 143.71767 386.95468 145.38077 386.95468 147.75532 L 386.95468 147.90622 L 386.45496 147.90622 L 386.45496 147.75532 C 386.45496 145.38077 386.46978 143.71767 386.48804 143.08377 L 366.92179 143.08377 C 366.94005 143.71767 366.95486 145.38077 366.95486 147.75532 L 366.95486 147.90622 L 366.45463 147.90622 L 366.45463 147.75584 C 366.45463 145.38079 366.46944 143.71723 366.48771 143.08377 L 346.92094 143.08377 C 346.93924 143.71452 346.95402 145.38044 346.95402 147.75842 L 346.95402 147.90622 L 346.45431 147.90622 L 346.45431 147.75842 C 346.45431 145.38044 346.46908 143.71452 346.48738 143.08377 L 333.67627 143.08377 z " />
  </g>
  <g
     inkscape:groupmode="layer"
     id="layer4"
     inkscape:label="underneath_layer"
     style="display:inline">
    <path
       id="rect14586"
       style="opacity:1;fill:#47fff8;stroke-width:3.11275;stroke-linecap:round"
       d="m 260.85932,284.45911 1.00426,1.55379 c 0.75916,1.1746 -3.98143,2.99143 -6.63271,7.96528 -22.25071,41.74248 -53.28988,81.75278 -102.74943,75.04336 -5.33698,-0.72398 -8.6142,4.89942 -9.37337,3.72481 l -1.00424,-1.5538 c -0.75916,-1.17461 1.30817,-8.78615 6.63269,-7.96525 42.3924,6.53572 80.49552,-29.41621 102.74942,-75.04338 2.47533,-5.07515 8.61422,-4.89943 9.37338,-3.72481 z"
       sodipodi:nodetypes="sssssssss" />
    <path
       id="rect14586-3"
       style="display:inline;fill:#47fff8;stroke-width:3.11275;stroke-linecap:round"
       d="m 260.22276,373.95987 1.00426,-1.55379 c 0.75916,-1.1746 -3.98143,-2.99143 -6.63271,-7.96528 -22.25071,-41.74248 -53.28988,-81.75278 -102.74944,-75.04336 -5.33697,0.72398 -8.61419,-4.89942 -9.37335,-3.72481 l -1.00425,1.5538 c -0.75917,1.17461 1.30817,8.78615 6.6327,7.96525 42.39239,-6.53572 80.49551,29.41621 102.74941,75.04338 2.47533,5.07515 8.61422,4.89943 9.37338,3.72481 z"
       sodipodi:nodetypes="sssssssss" />
    <rect
       style="display:inline;fill:#e94747;fill-opacity:1;stroke-width:0.878284;stroke-linecap:round"
       id="rect1478-6-6"
       width="3"
       height="21"
       x="350.49619"
       y="321.05447"
       rx="0.57495987"
       ry="1.4387302" />
    <rect
       style="display:inline;fill:#e94747;fill-opacity:1;stroke-width:0.878284;stroke-linecap:round"
       id="rect1478-9-0-8"
       width="3"
       height="21"
       x="460.62817"
       y="320.92218"
       rx="0.57495987"
       ry="1.4387302" />
    <path
       id="rect10435-56"
       style="display:inline;fill:#ff0000;fill-opacity:1;stroke-width:1.20655;stroke-linecap:round"
       d="M 368.01836 276.57072 C 367.99399 276.57072 367.97444 278.89596 367.97444 281.78383 L 367.97444 312.13444 L 348.47382 312.13495 L 348.47382 281.78642 C 348.47382 278.89854 348.45427 276.57382 348.4299 276.57382 L 348.01803 276.57382 C 347.99366 276.57382 347.97411 278.89854 347.97411 281.78642 L 347.97411 312.13495 L 335.30873 312.13547 C 331.12083 312.1356 327.74962 312.15553 327.75002 312.17991 L 327.75674 312.59177 C 327.75714 312.61615 331.12909 312.63583 335.317 312.6357 L 347.97411 312.63518 L 347.97411 332.13528 L 335.33715 332.1358 C 331.14925 332.13593 327.77804 332.15586 327.77844 332.18024 L 327.78516 332.5921 C 327.78556 332.61647 331.15752 332.63616 335.34542 332.63603 L 347.97411 332.63551 L 347.97411 352.1351 L 335.30977 352.13561 C 331.12186 352.13574 327.75065 352.15516 327.75105 352.17954 L 327.75777 352.59191 C 327.75817 352.61629 331.13014 352.63545 335.31803 352.63532 L 347.97411 352.63481 L 347.97411 382.35806 C 347.97411 385.24593 347.99366 387.57066 348.01803 387.57066 L 348.4299 387.57066 C 348.45427 387.57066 348.47382 385.24593 348.47382 382.35806 L 348.47382 352.63481 L 367.97444 352.63429 L 367.97444 382.35496 C 367.97444 385.24283 367.99399 387.56807 368.01836 387.56807 L 368.43022 387.56807 C 368.4546 387.56807 368.47415 385.24283 368.47415 382.35496 L 368.47415 352.63429 L 387.97425 352.63377 L 387.97425 382.35496 C 387.97425 385.24283 387.9938 387.56807 388.01818 387.56807 L 388.43004 387.56807 C 388.45441 387.56807 388.47396 385.24283 388.47396 382.35496 L 388.47396 352.63377 L 407.97406 352.63326 L 407.97406 382.35496 C 407.97406 385.24283 407.99362 387.56807 408.01799 387.56807 L 408.43037 387.56807 C 408.45474 387.56807 408.47429 385.24283 408.47429 382.35496 L 408.47429 352.63326 L 427.97439 352.63274 L 427.97439 382.35496 C 427.97439 385.24283 427.99395 387.56807 428.01832 387.56807 L 428.43018 387.56807 C 428.45455 387.56807 428.4741 385.24283 428.4741 382.35496 L 428.4741 352.63274 L 447.97421 352.63222 L 447.97421 382.35496 C 447.97421 385.24283 447.99376 387.56807 448.01813 387.56807 L 448.42999 387.56807 C 448.45436 387.56807 448.47443 385.24283 448.47443 382.35496 L 448.47443 352.63222 L 467.97402 352.63171 L 467.97402 382.35496 C 467.97402 385.24283 467.99354 387.56807 468.01794 387.56807 L 468.43032 387.56807 C 468.45472 387.56807 468.47425 385.24283 468.47425 382.35496 L 468.47425 352.63171 L 481.16391 352.63119 C 485.35181 352.63106 488.72251 352.61111 488.72211 352.58675 L 488.71539 352.17489 C 488.71499 352.15052 485.34355 352.13083 481.15564 352.13096 L 468.47425 352.13148 L 468.47425 332.63189 L 481.1913 332.63138 C 485.37921 332.63125 488.75041 332.61131 488.75001 332.58693 L 488.74329 332.17507 C 488.74289 332.1507 485.37094 332.13102 481.18303 332.13115 L 468.47425 332.13167 L 468.47425 312.63156 L 481.16288 312.63105 C 485.35077 312.63092 488.72199 312.61098 488.72159 312.5866 L 488.71436 312.17474 C 488.71396 312.15038 485.34252 312.13069 481.15461 312.13082 L 468.47425 312.13134 L 468.47425 281.78383 C 468.47425 278.89597 468.45472 276.57072 468.43032 276.57072 L 468.01794 276.57072 C 467.99354 276.57072 467.97402 278.89597 467.97402 281.78383 L 467.97402 312.13134 L 448.47443 312.13185 L 448.47443 281.78383 C 448.47443 278.89596 448.45436 276.57072 448.42999 276.57072 L 448.01813 276.57072 C 447.99376 276.57072 447.97421 278.89596 447.97421 281.78383 L 447.97421 312.13185 L 428.4741 312.13237 L 428.4741 281.78383 C 428.4741 278.89596 428.45455 276.57072 428.43018 276.57072 L 428.01832 276.57072 C 427.99395 276.57072 427.97439 278.89596 427.97439 281.78383 L 427.97439 312.13237 L 408.47429 312.13289 L 408.47429 281.78383 C 408.47429 278.89596 408.45474 276.57072 408.43037 276.57072 L 408.01799 276.57072 C 407.99362 276.57072 407.97406 278.89596 407.97406 281.78383 L 407.97406 312.1334 L 388.47396 312.13392 L 388.47396 281.78383 C 388.47396 278.89596 388.45441 276.57072 388.43004 276.57072 L 388.01818 276.57072 C 387.9938 276.57072 387.97425 278.89596 387.97425 281.78383 L 387.97425 312.13392 L 368.47415 312.13444 L 368.47415 281.78383 C 368.47415 278.89596 368.4546 276.57072 368.43022 276.57072 L 368.01836 276.57072 z M 467.97402 312.63156 L 467.97402 332.13167 L 448.47443 332.13218 L 448.47443 312.63208 L 467.97402 312.63156 z M 447.97421 312.63208 L 447.97421 332.13218 L 428.4741 332.1327 L 428.4741 312.6326 L 447.97421 312.63208 z M 427.97439 312.6326 L 427.97439 332.1327 L 408.47429 332.13322 L 408.47429 312.63311 L 427.97439 312.6326 z M 407.97406 312.63363 L 407.97406 332.13373 L 388.47396 332.13425 L 388.47396 312.63415 L 407.97406 312.63363 z M 387.97425 312.63415 L 387.97425 332.13425 L 368.47415 332.13477 L 368.47415 312.63466 L 387.97425 312.63415 z M 367.97444 312.63466 L 367.97444 332.13477 L 348.47382 332.13528 L 348.47382 312.63518 L 367.97444 312.63466 z M 467.97402 332.63189 L 467.97402 352.13148 L 448.47443 352.13199 L 448.47443 332.63241 L 467.97402 332.63189 z M 447.97421 332.63241 L 447.97421 352.13199 L 428.4741 352.13251 L 428.4741 332.63293 L 447.97421 332.63241 z M 427.97439 332.63293 L 427.97439 352.13251 L 408.47429 352.13303 L 408.47429 332.63344 L 427.97439 332.63293 z M 407.97406 332.63396 L 407.97406 352.13354 L 388.47396 352.13406 L 388.47396 332.63448 L 407.97406 332.63396 z M 387.97425 332.63448 L 387.97425 352.13406 L 368.47415 352.13458 L 368.47415 332.63499 L 387.97425 332.63448 z M 367.97444 332.63499 L 367.97444 352.13458 L 348.47382 352.1351 L 348.47382 332.63551 L 367.97444 332.63499 z " />
    <path
       id="rect348-7-7-6"
       style="display:inline;fill:#ff00ff;stroke-width:3.19075;stroke-linecap:round"
       d="m 339.73101,281.93427 h 136.55086 c 3.72541,0 6.72457,2.63119 6.72457,5.89953 v 88.20093 c 0,3.26834 -2.99916,5.89954 -6.72457,5.89954 H 339.73101 c -3.72541,0 -6.72457,-2.6312 -6.72457,-5.89954 V 287.8338 c 0,-3.26834 2.99916,-5.89953 6.72457,-5.89953 z" />
    <rect
       style="display:inline;fill:#e94747;fill-opacity:1;stroke-width:0.878284;stroke-linecap:round"
       id="rect1478-6-6-0"
       width="3"
       height="21"
       x="348.97623"
       y="187.02629"
       rx="0.57495987"
       ry="1.4387302" />
    <rect
       style="display:inline;fill:#e94747;fill-opacity:1;stroke-width:0.878284;stroke-linecap:round"
       id="rect1478-9-0-8-7"
       width="3"
       height="21"
       x="459.10822"
       y="186.894"
       rx="0.57495987"
       ry="1.4387302" />
  </g>
  <g
     inkscape:groupmode="layer"
     id="layer5"
     inkscape:label="under_under_layer"
     style="display:inline">
    <ellipse
       style="display:inline;fill:#47fff8;fill-opacity:1;stroke-width:2.37141;stroke-linecap:round"
       id="path5491"
       ry="15.478125"
       rx="19.633234"
       cy="331.80356"
       cx="204.76849" />
    <rect
       style="display:inline;fill:#47fff8;fill-opacity:1;stroke-width:1.20431;stroke-linecap:round"
       id="rect5348"
       width="10"
       height="28"
       x="143.21983"
       y="315.29926"
       rx="0.72619939"
       ry="1.4748133" />
    <rect
       style="display:inline;fill:#47fff8;fill-opacity:1;stroke-width:1.20431;stroke-linecap:round"
       id="rect5348-8"
       width="10"
       height="28"
       x="253.21071"
       y="315.64777"
       rx="0.72619939"
       ry="1.4748133" />
    <path
       id="path15197"
       style="opacity:1;fill:#ffffff;stroke-width:5.37996;stroke-linecap:round"
       d="m 201.61367,323.98514 c -0.19565,5.12244 -1.39468,9.28176 -3.11511,9.28177 -1.72043,1e-5 -3.05735,-4.15591 -3.11512,-9.28177 -0.12903,-11.44877 1.39469,-9.28179 3.11512,-9.28178 1.72043,1e-5 3.63124,-4.2315 3.11511,9.28178 z"
       sodipodi:nodetypes="sssss" />
    <path
       id="path15197-8"
       style="display:inline;fill:#ffffff;stroke-width:5.37996;stroke-linecap:round"
       d="m 213.21033,323.74194 c -0.28542,5.11824 -1.39469,9.28179 -3.11512,9.28178 -1.72043,-1e-5 -2.87187,-4.16138 -3.11511,-9.28178 -0.58064,-12.22295 1.36242,-7.41079 1.56672,-7.28177 1.45464,0.91865 5.17964,-1.97345 4.66351,7.28177 z"
       sodipodi:nodetypes="sssss" />
    <path
       id="path15197-8-6"
       style="display:inline;fill:#ffffff;stroke-width:9.14065;stroke-linecap:round"
       d="m 206.41218,345.09089 c -2.43651,7.09352 -14.44159,3.75334 -11.00032,-6.57731 1.56951,-4.71164 4.13244,0.60354 9.25849,0.49412 5.12605,-0.10942 11.75631,-5.20914 9.30456,-0.89036 -2.98286,5.25434 -6.2137,3.04607 -7.56273,6.97355 z"
       sodipodi:nodetypes="sssss" />
    <ellipse
       style="display:inline;fill:#47fff8;fill-opacity:1;stroke-width:2.37141;stroke-linecap:round"
       id="path5491-1"
       ry="15.478125"
       rx="19.633234"
       cy="333.38113"
       cx="408.05267" />
    <rect
       style="display:inline;fill:#47fff8;fill-opacity:1;stroke-width:1.20431;stroke-linecap:round"
       id="rect5348-2"
       width="10"
       height="28"
       x="345.4458"
       y="316.87683"
       rx="0.72619939"
       ry="1.4748133" />
    <rect
       style="display:inline;fill:#47fff8;fill-opacity:1;stroke-width:0.881056;stroke-linecap:round"
       id="rect5348-2-7"
       width="29.971855"
       height="5.0000553"
       x="25.559565"
       y="505.8161"
       rx="2.1765544"
       ry="0.26336244"
       transform="matrix(0.76588442,-0.64297827,0.64029018,0.76813312,0,0)" />
    <rect
       style="display:inline;fill:#47fff8;fill-opacity:1;stroke-width:0.881056;stroke-linecap:round"
       id="rect5348-2-7-7"
       width="29.971855"
       height="5.0000553"
       x="-597.30182"
       y="-15.554177"
       rx="2.1765544"
       ry="0.26336244"
       transform="matrix(-0.76588442,-0.64297827,-0.64029018,0.76813312,0,0)" />
    <rect
       style="display:inline;fill:#47fff8;fill-opacity:1;stroke-width:0.881056;stroke-linecap:round"
       id="rect5348-2-7-5"
       width="29.971855"
       height="5.0000553"
       x="450.16217"
       y="-2.0982018"
       rx="2.1765544"
       ry="0.26336244"
       transform="matrix(0.76588442,0.64297827,0.64029018,-0.76813312,0,0)" />
    <rect
       style="display:inline;fill:#47fff8;fill-opacity:1;stroke-width:0.881056;stroke-linecap:round"
       id="rect5348-2-7-7-3"
       width="29.971855"
       height="5.0000553"
       x="-172.6747"
       y="-523.45087"
       rx="2.1765544"
       ry="0.26336244"
       transform="matrix(-0.76588442,0.64297827,-0.64029018,-0.76813312,0,0)" />
    <rect
       style="display:inline;fill:#47fff8;fill-opacity:1;stroke-width:1.20431;stroke-linecap:round"
       id="rect5348-8-8"
       width="10"
       height="28"
       x="455.96585"
       y="317.22534"
       rx="0.72619939"
       ry="1.4748133" />
    <path
       id="path15197-5"
       style="display:inline;fill:#ffffff;stroke-width:5.37996;stroke-linecap:round"
       d="m 404.89786,325.56271 c -0.19565,5.12244 -1.39468,9.28176 -3.11511,9.28177 -1.72043,1e-5 -3.05735,-4.15591 -3.11512,-9.28177 -0.12903,-11.44877 1.39469,-9.28179 3.11512,-9.28178 1.72043,10e-6 3.63124,-4.2315 3.11511,9.28178 z"
       sodipodi:nodetypes="sssss" />
    <path
       id="path15197-8-9"
       style="display:inline;fill:#ffffff;stroke-width:5.37996;stroke-linecap:round"
       d="m 416.49452,325.31951 c -0.28542,5.11824 -1.39469,9.28179 -3.11512,9.28178 -1.72043,-1e-5 -2.87187,-4.16138 -3.11511,-9.28178 -0.58064,-12.22295 1.36242,-7.41079 1.56672,-7.28177 1.45464,0.91865 5.17964,-1.97345 4.66351,7.28177 z"
       sodipodi:nodetypes="sssss" />
    <path
       id="path15197-8-6-3"
       style="display:inline;fill:#ffffff;stroke-width:9.14065;stroke-linecap:round"
       d="m 409.69637,346.66846 c -2.43651,7.09352 -14.44159,3.75334 -11.00032,-6.57731 1.56951,-4.71164 4.13244,0.60354 9.25849,0.49412 5.12605,-0.10942 11.75631,-5.20914 9.30456,-0.89036 -2.98286,5.25434 -6.2137,3.04607 -7.56273,6.97355 z"
       sodipodi:nodetypes="sssss" />
    <ellipse
       style="display:inline;fill:#47fff8;fill-opacity:1;stroke-width:2.37141;stroke-linecap:round"
       id="path5491-1-4"
       ry="15.478125"
       rx="19.633234"
       cy="199.35295"
       cx="406.53271" />
    <rect
       style="display:inline;fill:#47fff8;fill-opacity:1;stroke-width:1.20431;stroke-linecap:round"
       id="rect5348-2-6"
       width="10"
       height="28"
       x="343.92584"
       y="182.84865"
       rx="0.72619939"
       ry="1.4748133" />
    <rect
       style="display:inline;fill:#47fff8;fill-opacity:1;stroke-width:0.881056;stroke-linecap:round"
       id="rect5348-2-7-9"
       width="29.971855"
       height="5.0000553"
       x="110.2095"
       y="402.18811"
       rx="2.1765544"
       ry="0.26336244"
       transform="matrix(0.76588442,-0.64297827,0.64029018,0.76813312,0,0)" />
    <rect
       style="display:inline;fill:#47fff8;fill-opacity:1;stroke-width:0.881056;stroke-linecap:round"
       id="rect5348-2-7-7-9"
       width="29.971855"
       height="5.0000553"
       x="-510.31683"
       y="-117.22762"
       rx="2.1765544"
       ry="0.26336244"
       transform="matrix(-0.76588442,-0.64297827,-0.64029018,0.76813312,0,0)" />
    <rect
       style="display:inline;fill:#47fff8;fill-opacity:1;stroke-width:0.881056;stroke-linecap:round"
       id="rect5348-2-7-5-2"
       width="29.971855"
       height="5.0000553"
       x="363.17715"
       y="99.575226"
       rx="2.1765544"
       ry="0.26336244"
       transform="matrix(0.76588442,0.64297827,0.64029018,-0.76813312,0,0)" />
    <rect
       style="display:inline;fill:#47fff8;fill-opacity:1;stroke-width:0.881056;stroke-linecap:round"
       id="rect5348-2-7-7-3-5"
       width="29.971855"
       height="5.0000553"
       x="-257.32465"
       y="-419.82288"
       rx="2.1765544"
       ry="0.26336244"
       transform="matrix(-0.76588442,0.64297827,-0.64029018,-0.76813312,0,0)" />
    <rect
       style="display:inline;fill:#47fff8;fill-opacity:1;stroke-width:1.20431;stroke-linecap:round"
       id="rect5348-8-8-6"
       width="10"
       height="28"
       x="454.44589"
       y="183.19716"
       rx="0.72619939"
       ry="1.4748133" />
    <path
       id="path15197-5-9"
       style="display:inline;fill:#ffffff;stroke-width:5.37996;stroke-linecap:round"
       d="m 403.37791,191.53452 c -0.19565,5.12244 -1.39468,9.28176 -3.11511,9.28177 -1.72043,1e-5 -3.05735,-4.15591 -3.11512,-9.28177 -0.12903,-11.44877 1.39469,-9.28179 3.11512,-9.28178 1.72043,1e-5 3.63124,-4.2315 3.11511,9.28178 z"
       sodipodi:nodetypes="sssss" />
    <path
       id="path15197-8-9-1"
       style="display:inline;fill:#ffffff;stroke-width:5.37996;stroke-linecap:round"
       d="m 414.97457,191.29132 c -0.28542,5.11824 -1.39469,9.28179 -3.11512,9.28178 -1.72043,-1e-5 -2.87187,-4.16138 -3.11511,-9.28178 -0.58064,-12.22295 1.36242,-7.41079 1.56672,-7.28177 1.45464,0.91865 5.17964,-1.97345 4.66351,7.28177 z"
       sodipodi:nodetypes="sssss" />
    <path
       id="path15197-8-6-3-7"
       style="display:inline;fill:#ffffff;stroke-width:9.14065;stroke-linecap:round"
       d="m 408.17642,212.64027 c -2.43651,7.09352 -14.44159,3.75334 -11.00032,-6.57731 1.56951,-4.71164 4.13244,0.60354 9.25849,0.49412 5.12605,-0.10942 11.75631,-5.20914 9.30456,-0.89036 -2.98286,5.25434 -6.2137,3.04607 -7.56273,6.97355 z"
       sodipodi:nodetypes="sssss" />
    <path
       id="rect14586-6"
       style="display:inline;fill:#47fff8;stroke-width:3.11275;stroke-linecap:round"
       d="m 255.73633,142.69465 c -0.0719,-7e-4 -0.14466,-5.3e-4 -0.21859,0.001 -2.21794,0.0469 -5.33543,1.13694 -6.93084,4.408 -6.40578,13.13373 -14.12687,25.46239 -22.88336,36.2102 -19.38464,-23.42705 -44.04014,-39.43512 -76.75759,-34.99683 -5.33694,0.72394 -8.61441,-4.89945 -9.37357,-3.72484 l -1.00407,1.55391 c -0.75915,1.17461 1.30816,8.78579 6.63267,7.96489 23.06215,-3.55555 44.85188,5.47122 63.51393,21.78161 1.05029,0.54699 1.85464,2.13632 1.59629,6.7691 -0.28542,5.11823 -1.39463,9.28161 -3.11506,9.2816 -1.72043,-1e-5 -2.87181,-4.16121 -3.11505,-9.2816 -0.19053,-4.01065 -0.10931,-6.18752 0.093,-7.29723 a 19.633234,15.478125 0 0 0 -2.30425,-0.11937 19.633234,15.478125 0 0 0 -3.21789,0.21342 c 0.16089,1.49507 0.2017,3.81592 0.063,7.44606 -0.19565,5.12242 -1.39515,9.28159 -3.11558,9.2816 -1.72041,1e-5 -3.05728,-4.15576 -3.11505,-9.2816 -0.0292,-2.59414 0.0305,-4.46135 0.15399,-5.84099 a 19.633234,15.478125 0 0 0 -10.40195,13.65963 19.633234,15.478125 0 0 0 10.48309,13.69271 c -0.92018,-1.72316 -1.17495,-4.0764 -0.20671,-6.98304 1.56951,-4.71164 4.13282,0.60396 9.25887,0.49454 5.12602,-0.10942 11.75609,-5.20916 9.30434,-0.89038 -2.98286,5.25431 -6.21382,3.04574 -7.56285,6.97322 -0.55907,1.62762 -1.62221,2.70467 -2.88664,3.27525 -16.59448,11.84547 -35.23449,17.87583 -54.78889,14.86111 -5.32451,-0.8209 -7.39182,6.79079 -6.63267,7.9654 l 1.00408,1.55391 c 0.75916,1.17461 4.03662,-4.44881 9.37357,-3.72483 32.35664,4.38931 56.82904,-11.21799 76.11524,-34.22324 8.49758,10.56362 16.0004,22.61811 22.25239,35.4366 2.47533,5.07511 8.61443,4.89942 9.37359,3.72484 l 1.00407,-1.55391 c 0.75916,-1.1746 -3.98139,-2.99108 -6.63267,-7.96489 -6.4598,-12.11866 -13.66199,-24.08911 -21.83897,-34.81493 8.4409,-10.93667 15.84843,-23.21532 22.47563,-35.64796 2.65128,-4.97381 7.39183,-6.7908 6.63267,-7.9654 l -1.00407,-1.55339 c -0.23724,-0.36707 -0.99978,-0.63682 -2.01177,-0.67903 -0.0696,-0.003 -0.14052,-0.004 -0.21239,-0.005 z m -34.43976,45.78842 c 7.3e-4,8.3e-4 0.001,0.002 0.002,0.003 -4.9e-4,5.5e-4 -0.001,10e-4 -0.002,0.002 a 19.633234,15.478125 0 0 0 -5.2e-4,-0.004 z" />
  </g>
  <g
     inkscape:groupmode="layer"
     id="layer6"
     inkscape:label="spray_cover_layer"
     transform="translate(-82.115624,-58.028375)"
     style="display:none;fill:#fffa0f;fill-opacity:1">
    <rect
       style="display:inline;fill:#fffc72;fill-opacity:1;stroke-width:2.79075;stroke-linecap:round"
       id="rect348-7-7-5-5"
       width="135"
       height="85"
       x="423.09711"
       y="347.32556"
       rx="6.0521154"
       ry="5.0146055" />
    <rect
       style="display:inline;fill:#fffc72;fill-opacity:1;stroke-width:0.902477;stroke-linecap:round"
       id="rect348-7-7-5-5-8"
       width="10"
       height="120"
       x="485.28409"
       y="329.55637"
       rx="0.44830486"
       ry="7.079443" />
    <rect
       style="display:inline;fill:#fffc72;fill-opacity:1;stroke-width:1.07406;stroke-linecap:round"
       id="rect348-7-7-5-5-8-1"
       width="10.000043"
       height="169.96489"
       x="385.70999"
       y="-573.34967"
       rx="0.4483068"
       ry="10.02714"
       transform="matrix(0.00388278,0.99999246,-0.99999863,0.00165604,0,0)" />
    <rect
       style="display:inline;fill:none;fill-opacity:1;stroke:#fffc72;stroke-width:9.5421;stroke-linecap:square;stroke-linejoin:bevel;stroke-dasharray:none;stroke-dashoffset:0;stroke-opacity:1"
       id="rect348-7-7-8"
       width="160.4579"
       height="110.4579"
       x="327.7074"
       y="276.65521"
       rx="7.1934056"
       ry="6.5165029"
       transform="translate(82.115624,58.028375)" />
    <path
       id="rect348-7-7-5-5-6"
       style="display:inline;fill:#fffc72;fill-opacity:1;stroke-width:2.79075;stroke-linecap:round"
       d="m 415.82082,196.37341 c -6.3048,0 -11.96309,4.85198 -11.96309,11.28872 v 97.42403 c 0,6.43674 5.65829,11.28716 11.96309,11.28716 h 146.07222 c 6.30481,0 11.96465,-4.85042 11.96465,-11.28716 v -97.42403 c 0,-6.43674 -5.65984,-11.28872 -11.96465,-11.28872 z m 0,9.54309 h 68.2687 v 7.87032 h -56.13507 c -3.35287,0 -6.05183,2.23659 -6.05183,5.01468 v 32.66932 l -7.70185,0.0129 c -0.28482,4.8e-4 -0.52339,0.007 -0.80202,0.009 v -43.8304 c 0,-0.78352 0.7566,-1.74563 2.42207,-1.74563 z m 78.26861,0 h 67.80361 c 1.66546,0 2.42208,0.96211 2.42208,1.74563 v 43.57977 c -0.29422,-6.7e-4 -0.54686,-0.007 -0.84801,-0.006 l -6.56446,0.0109 v -32.44505 c 0,-2.77809 -2.69948,-5.01468 -6.05234,-5.01468 h -56.76088 z m 70.22569,55.31032 v 43.85934 c 0,0.78352 -0.75662,1.74614 -2.42208,1.74614 h -67.80361 v -8.0455 h 56.76088 c 3.35286,0 6.05234,-2.23659 6.05234,-5.01468 v -32.52566 l 6.60322,-0.0109 c 0.28742,-4.8e-4 0.52812,-0.007 0.80925,-0.009 z m -142.4125,0.24391 v 32.30139 c 0,2.77809 2.69896,5.01468 6.05183,5.01468 h 56.13507 v 8.0455 h -68.2687 c -1.66547,0 -2.42207,-0.96262 -2.42207,-1.74614 v -43.60871 c 0.29163,6.5e-4 0.54182,0.007 0.84026,0.006 z" />
    <rect
       style="fill:none;fill-opacity:1;stroke:#c4c000;stroke-width:5.04689;stroke-linecap:square;stroke-linejoin:bevel;stroke-dasharray:none;stroke-dashoffset:0;stroke-opacity:1"
       id="rect16290"
       width="166.95311"
       height="116.95311"
       x="405.2991"
       y="198.22701"
       rx="2.9193983"
       ry="2.417155" />
  </g>
  <g
     inkscape:label="Layer 1"
     inkscape:groupmode="layer"
     id="layer1"
     style="display:inline">
    <text
       xml:space="preserve"
       style="font-size:17.6389px;font-family:Rockwell;-inkscape-font-specification:Rockwell;text-align:center;text-anchor:middle;fill:#e94747;fill-opacity:1;stroke-width:3;stroke-linecap:round"
       x="177.83665"
       y="262.29831"
       id="text2672"><tspan
         sodipodi:role="line"
         id="tspan2670"
         style="stroke-width:3"
         x="177.83665"
         y="262.29831">underneath</tspan></text>
    <text
       xml:space="preserve"
       style="font-size:17.6389px;font-family:Rockwell;-inkscape-font-specification:Rockwell;text-align:center;text-anchor:middle;fill:#e94747;fill-opacity:1;stroke-width:3;stroke-linecap:round"
       x="186.36119"
       y="30.211252"
       id="text2672-3-8"><tspan
         sodipodi:role="line"
         id="tspan2670-1-8"
         style="stroke-width:3"
         x="186.36119"
         y="30.211252">take A</tspan></text>
    <text
       xml:space="preserve"
       style="font-size:17.6389px;font-family:Rockwell;-inkscape-font-specification:Rockwell;text-align:center;text-anchor:middle;fill:#e94747;fill-opacity:1;stroke-width:3;stroke-linecap:round"
       x="376.00824"
       y="31.162245"
       id="text2672-3-8-4"><tspan
         sodipodi:role="line"
         id="tspan2670-1-8-7"
         style="stroke-width:3"
         x="376.00824"
         y="31.162245">take B</tspan></text>
  </g>
</svg>
