<?xml version="1.0" encoding="UTF-8" standalone="no"?>
<!-- Created with Inkscape (http://www.inkscape.org/) -->

<svg
   width="400mm"
   height="400mm"
   viewBox="0 0 400 400"
   version="1.1"
   id="svg5"
   inkscape:version="1.2.1 (9c6d41e410, 2022-07-14)"
   sodipodi:docname="car_sun_blocker_main.svg"
   xmlns:inkscape="http://www.inkscape.org/namespaces/inkscape"
   xmlns:sodipodi="http://sodipodi.sourceforge.net/DTD/sodipodi-0.dtd"
   xmlns="http://www.w3.org/2000/svg"
   xmlns:svg="http://www.w3.org/2000/svg">
  <sodipodi:namedview
     id="namedview7"
     pagecolor="#ffffff"
     bordercolor="#000000"
     borderopacity="0.25"
     inkscape:showpageshadow="2"
     inkscape:pageopacity="0.0"
     inkscape:pagecheckerboard="0"
     inkscape:deskcolor="#d1d1d1"
     inkscape:document-units="mm"
     showgrid="false"
     inkscape:zoom="0.25631511"
     inkscape:cx="987.06627"
     inkscape:cy="661.29539"
     inkscape:window-width="1920"
     inkscape:window-height="991"
     inkscape:window-x="-9"
     inkscape:window-y="-9"
     inkscape:window-maximized="1"
     inkscape:current-layer="layer5"
     showguides="true" />
  <defs
     id="defs2">
    <inkscape:path-effect
       effect="mirror_symmetry"
       start_point="284.61395,158.14332"
       end_point="284.61395,189.43179"
       center_point="284.61395,173.78756"
       id="path-effect5109"
       is_visible="true"
       lpeversion="1.2"
       lpesatellites=""
       mode="horizontal"
       discard_orig_path="false"
       fuse_paths="false"
       oposite_fuse="false"
       split_items="false"
       split_open="false"
       link_styles="false" />
    <inkscape:path-effect
       effect="mirror_symmetry"
       start_point="188.49017,158.14332"
       end_point="188.49017,189.43179"
       center_point="188.49017,173.78756"
       id="path-effect5085"
       is_visible="true"
       lpeversion="1.2"
       lpesatellites=""
       mode="vertical"
       discard_orig_path="false"
       fuse_paths="false"
       oposite_fuse="false"
       split_items="false"
       split_open="false"
       link_styles="false" />
    <inkscape:path-effect
       effect="mirror_symmetry"
       start_point="255.14078,59.539463"
       end_point="255.14078,130.27095"
       center_point="255.14078,94.905208"
       id="path-effect5722"
       is_visible="true"
       lpeversion="1.2"
       lpesatellites=""
       mode="vertical"
       discard_orig_path="false"
       fuse_paths="false"
       oposite_fuse="false"
       split_items="false"
       split_open="false"
       link_styles="false" />
    <inkscape:path-effect
       effect="mirror_symmetry"
       start_point="210.70395,59.539463"
       end_point="210.70395,76.539463"
       center_point="210.70395,68.039463"
       id="path-effect5720"
       is_visible="true"
       lpeversion="1.2"
       lpesatellites=""
       mode="horizontal"
       discard_orig_path="false"
       fuse_paths="false"
       oposite_fuse="false"
       split_items="false"
       split_open="false"
       link_styles="false" />
    <inkscape:path-effect
       effect="mirror_symmetry"
       start_point="84.478917,122.12929"
       end_point="257.187,2.6641503"
       center_point="170.83296,62.396718"
       id="path-effect5697"
       is_visible="true"
       lpeversion="1.2"
       lpesatellites=""
       mode="horizontal"
       discard_orig_path="false"
       fuse_paths="false"
       oposite_fuse="false"
       split_items="false"
       split_open="false"
       link_styles="false" />
    <inkscape:path-effect
       effect="mirror_symmetry"
       start_point="47.891117,226.61572"
       end_point="197.89112,276.61572"
       center_point="197.89112,226.61572"
       id="path-effect5693"
       is_visible="true"
       lpeversion="1.2"
       lpesatellites=""
       mode="horizontal"
       discard_orig_path="false"
       fuse_paths="false"
       oposite_fuse="false"
       split_items="false"
       split_open="false"
       link_styles="false" />
  </defs>
  <g
     inkscape:groupmode="layer"
     id="layer2"
     inkscape:label="top_layer"
     style="display:inline">
    <rect
       style="display:inline;fill:#000000;stroke-width:1.87058;stroke-linecap:round"
       id="rect234-2-6-0"
       width="20"
       height="150"
       x="375"
       y="25"
       ry="5.6927447"
       rx="3.4665442" />
    <rect
       style="display:inline;fill:#47fff8;fill-opacity:1;stroke-width:3.05348;stroke-linecap:round"
       id="rect5348-8-8-0"
       width="40"
       height="45"
       x="334.92468"
       y="80.50164"
       rx="2.9047976"
       ry="2.3702357" />
    <rect
       style="display:inline;fill:#47fff8;fill-opacity:1;stroke-width:3.05348;stroke-linecap:round"
       id="rect5348-8-8-0-6"
       width="40"
       height="45"
       x="334.72009"
       y="24.272163"
       rx="2.9047976"
       ry="2.3702357" />
    <rect
       style="display:inline;opacity:1;fill:#ff0000;fill-opacity:1;stroke-width:1.87935;stroke-linecap:round"
       id="rect5891"
       width="12"
       height="5"
       x="379"
       y="150"
       rx="0.62668484"
       ry="0.67869323" />
    <rect
       style="display:inline;fill:#ff0000;fill-opacity:1;stroke-width:1.87935;stroke-linecap:round"
       id="rect5891-0"
       width="12"
       height="5"
       x="379"
       y="45"
       rx="0.62668484"
       ry="0.67869323" />
    <path
       id="rect234-2-6-0-2"
       style="display:inline;fill:#000000;stroke-width:1.87058;stroke-linecap:round"
       d="M 381.08113 178.73534 C 379.16067 178.73534 377.61468 181.27424 377.61468 184.42802 L 377.61468 323.04281 C 377.61468 326.19659 379.16067 328.73549 381.08113 328.73549 L 394.14803 328.73549 C 396.0685 328.73549 397.61449 326.19659 397.61449 323.04281 L 397.61449 184.42802 C 397.61449 181.27424 396.0685 178.73534 394.14803 178.73534 L 381.08113 178.73534 z M 382.24127 198.73516 L 392.9879 198.73516 C 393.33508 198.73516 393.61473 199.03819 393.61473 199.41418 L 393.61473 203.05686 C 393.61473 203.43285 393.33508 203.73537 392.9879 203.73537 L 382.24127 203.73537 C 381.89408 203.73537 381.61443 203.43285 381.61443 203.05686 L 381.61443 199.41418 C 381.61443 199.03819 381.89408 198.73516 382.24127 198.73516 z M 382.24127 303.73547 L 392.9879 303.73547 C 393.33508 303.73547 393.61473 304.03798 393.61473 304.41398 L 393.61473 308.05665 C 393.61473 308.43264 393.33508 308.73516 392.9879 308.73516 L 382.24127 308.73516 C 381.89408 308.73516 381.61443 308.43264 381.61443 308.05665 L 381.61443 304.41398 C 381.61443 304.03798 381.89408 303.73547 382.24127 303.73547 z " />
    <rect
       style="display:inline;fill:#000000;stroke-width:2.60093;stroke-linecap:round"
       id="rect234-2-6"
       width="20"
       height="290"
       x="13.044034"
       y="8.5837402"
       ry="11.005973"
       rx="3.4665442" />
  </g>
  <g
     inkscape:groupmode="layer"
     id="layer3"
     inkscape:label="bot_layer"
     style="display:inline">
    <rect
       style="fill:#333333;fill-opacity:1;stroke-width:3.45623;stroke-linecap:round"
       id="rect348-7-4-6-2"
       width="160"
       height="110"
       x="214.10338"
       y="271.65683"
       rx="7.1728773"
       ry="6.4894891" />
    <rect
       style="display:inline;fill:#e94747;fill-opacity:1;stroke-width:1.13386;stroke-linecap:round"
       id="rect1478-6-1-3-6"
       width="5"
       height="21"
       x="223.00757"
       y="315.59921"
       rx="0.95826644"
       ry="1.4387302" />
    <rect
       style="display:inline;fill:#e94747;fill-opacity:1;stroke-width:1.13386;stroke-linecap:round"
       id="rect1478-9-0-9-3-6"
       width="5"
       height="21"
       x="359.23288"
       y="315.46692"
       rx="0.95826644"
       ry="1.4387302" />
    <path
       id="rect348-7-4-6"
       style="display:inline;fill:#333333;fill-opacity:1;stroke-width:3.45623;stroke-linecap:round"
       d="m 217.0436,133.16396 c -3.97377,0 -7.17321,2.89436 -7.17321,6.48953 v 97.02095 c 0,3.59518 3.19944,6.48953 7.17321,6.48953 h 145.65416 c 3.97376,0 7.17269,-2.89435 7.17269,-6.48953 v -97.02095 c 0,-3.59517 -3.19893,-6.48953 -7.17269,-6.48953 z m 138.91452,43.81025 h 3.08353 c 0.53088,0 0.9586,0.64162 0.9586,1.43867 v 18.12241 c 0,0.79706 -0.42772,1.43919 -0.9586,1.43919 h -3.08353 c -0.53088,0 -0.95808,-0.64213 -0.95808,-1.43919 v -18.12241 c 0,-0.79705 0.4272,-1.43867 0.95808,-1.43867 z m -136.22528,0.13229 h 3.08353 c 0.53088,0 0.95808,0.64162 0.95808,1.43867 v 18.12241 c 0,0.79706 -0.4272,1.43919 -0.95808,1.43919 h -3.08353 c -0.53088,0 -0.95808,-0.64213 -0.95808,-1.43919 v -18.12241 c 0,-0.79705 0.4272,-1.43867 0.95808,-1.43867 z" />
    <path
       id="rect348-7-7-2"
       style="display:inline;opacity:1;fill:#333333;fill-opacity:1;stroke-width:3.45623;stroke-linecap:round"
       d="m 44.962597,134.15561 c -3.97377,0 -7.17269,2.89435 -7.17269,6.48953 v 97.02095 c 0,3.59516 3.19892,6.48952 7.17269,6.48952 H 190.61676 c 3.97377,0 7.17321,-2.89436 7.17321,-6.48952 v -97.02095 c 0,-3.59518 -3.19944,-6.48953 -7.17321,-6.48953 z m 13.28549,44.23348 h 3.08353 c 0.53088,0 0.95808,0.64161 0.95808,1.43867 v 18.1224 c 0,0.79706 -0.4272,1.43868 -0.95808,1.43868 h -3.08353 c -0.53088,0 -0.95808,-0.64162 -0.95808,-1.43868 v -18.1224 c 0,-0.79706 0.4272,-1.43867 0.95808,-1.43867 z m 109.999503,0 h 3.08353 c 0.53088,0 0.95808,0.64161 0.95808,1.43867 v 18.1224 c 0,0.79706 -0.4272,1.43868 -0.95808,1.43868 h -3.08353 c -0.53088,0 -0.95808,-0.64162 -0.95808,-1.43868 v -18.1224 c 0,-0.79706 0.4272,-1.43867 0.95808,-1.43867 z" />
    <rect
       style="display:inline;fill:#000000;fill-opacity:1;stroke-width:3.45623;stroke-linecap:round"
       id="rect348-7"
       width="160"
       height="110"
       x="40.072502"
       y="275.53452"
       rx="7.1728773"
       ry="6.4894891" />
    <rect
       style="display:inline;fill:#e94747;fill-opacity:1;stroke-width:1.13386;stroke-linecap:round"
       id="rect1478-6"
       width="5"
       height="21"
       x="59.545662"
       y="319.4769"
       rx="0.95826644"
       ry="1.4387302" />
    <rect
       style="display:inline;fill:#e94747;fill-opacity:1;stroke-width:1.13386;stroke-linecap:round"
       id="rect1478-9-0"
       width="5"
       height="21"
       x="169.67747"
       y="319.3446"
       rx="0.95826644"
       ry="1.4387302" />
  </g>
  <g
     inkscape:groupmode="layer"
     id="layer4"
     inkscape:label="underneath_layer"
     style="display:inline">
    <rect
       style="fill:#000000;fill-opacity:1;stroke-width:1.83882;stroke-linecap:round"
       id="rect5344-9"
       width="40"
       height="20"
       x="223.99399"
       y="316.1568"
       ry="2.245064" />
    <rect
       style="fill:#000000;fill-opacity:1;stroke-width:0.65012;stroke-linecap:round"
       id="rect5344-0-93"
       width="10"
       height="10"
       x="263.62692"
       y="321.1568"
       ry="0" />
    <rect
       style="fill:#000000;fill-opacity:1;stroke-width:1.83687;stroke-linecap:round"
       id="rect5344-7-2"
       width="39.915791"
       height="19.999693"
       x="-361.65588"
       y="-340.15009"
       ry="2.2450294"
       transform="matrix(-0.99993863,0.01107739,-0.00558147,-0.99998443,0,0)" />
    <rect
       style="fill:#000000;fill-opacity:1;stroke-width:0.645068;stroke-linecap:round"
       id="rect5344-0-9-3"
       width="9.922286"
       height="9.922286"
       x="-321.65213"
       y="-333.61804"
       ry="0"
       transform="rotate(179.54947)" />
    <rect
       style="fill:#000000;fill-opacity:1;stroke-width:1.87409;stroke-linecap:round"
       id="rect5600-09"
       width="5.9868379"
       height="80.448128"
       x="222.28476"
       y="285.79843"
       rx="0"
       ry="0" />
    <rect
       style="fill:#000000;fill-opacity:1;stroke-width:1.87409;stroke-linecap:round"
       id="rect5600-0-4"
       width="5.9868379"
       height="80.448128"
       x="358.61093"
       y="284.83069"
       rx="0"
       ry="0" />
    <rect
       style="fill:#000000;fill-opacity:1;stroke-width:0.913117;stroke-linecap:round"
       id="rect5344-0-2-1-6"
       width="9.8636026"
       height="19.999983"
       x="-312.29184"
       y="-338.6445"
       ry="1.190624"
       rx="1.4353597"
       transform="matrix(-0.99996821,0.00797188,-0.0077559,-0.99996993,0,0)" />
    <rect
       style="fill:#000000;fill-opacity:1;stroke-width:0.919409;stroke-linecap:round"
       id="rect5344-0-2-2"
       width="10"
       height="20"
       x="272.9635"
       y="316.1568"
       ry="1.190625"
       rx="1.4552083" />
    <path
       style="opacity:1;fill:#000000;fill-opacity:1;stroke-width:3.09715;stroke-linecap:round"
       d="m 223.40318,308.50416 70.49889,6.08542 69.9349,-4.7625 0.93816,-25.1432 -5.93916,-4.47979 -132.35264,0.25424 -4.4063,4.18283 z"
       id="path13598"
       sodipodi:nodetypes="cccccccc" />
    <path
       style="fill:#000000;fill-opacity:1;stroke-width:3.09715;stroke-linecap:round"
       d="m 363.32688,344.67274 -70.4748,-6.35839 -69.95281,4.49162 -1.03553,25.13938 5.92177,4.50275 132.35263,0.25832 4.42247,-4.16574 z"
       id="path13598-8"
       sodipodi:nodetypes="cccccccc" />
    <rect
       style="opacity:1;fill:#000000;fill-opacity:1;stroke-width:3;stroke-linecap:round"
       id="rect13730"
       width="12.160764"
       height="37.043556"
       x="287.55527"
       y="307.94797" />
    <path
       id="rect5344-9-2"
       style="display:inline;fill:#000000;fill-opacity:1;stroke-width:1.83882;stroke-linecap:round"
       d="m 318.23794,23.331392 -132.35265,0.254248 -4.40644,4.182691 0.1757,3.162081 v 70.696458 l -0.38913,9.44594 5.9216,4.50256 132.35265,0.25839 4.42247,-4.16564 -0.0238,-0.45579 h 0.24804 V 27.957983 h -0.015 l 0.006,-0.146761 z m -130.59668,28.717627 59.31576,5.120101 v 24.612451 l -59.31576,3.808554 v -6.306076 h 33.50958 c 1.24377,0 2.24483,-1.00106 2.24483,-2.244824 v -2.755387 h 8.96947 v 3.809586 c 0,0.659606 0.64903,1.190625 1.45521,1.190625 h 7.08949 c 0.80619,0 1.45521,-0.531019 1.45521,-1.190625 V 60.474862 c 0,-0.659606 -0.64902,-1.190625 -1.45521,-1.190625 h -7.08949 c -0.80618,0 -1.45521,0.531019 -1.45521,1.190625 v 3.809069 h -8.96947 v -2.75487 c 0,-1.243764 -1.00106,-2.244824 -2.24483,-2.244824 h -33.50958 z m 130.55844,1.248503 v 6.020304 l -33.04553,0.365869 c -1.24367,0.01378 -2.23936,1.02642 -2.23242,2.270146 l 0.0129,2.335258 -8.74004,0.06873 -0.0305,-3.894853 c -0.005,-0.659585 -0.64919,-1.185078 -1.44435,-1.178739 l -6.99286,0.05581 c -0.79516,0.0063 -1.43087,0.542409 -1.42575,1.201994 l 0.13643,17.618046 c 0.005,0.659585 0.64919,1.185595 1.44435,1.179256 l 6.99286,-0.05581 c 0.79516,-0.0063 1.43138,-0.542409 1.42627,-1.201994 l -0.0295,-3.801835 8.71833,-0.06873 0.0181,3.251998 c 0.007,1.243726 1.01407,2.233797 2.25774,2.22002 l 32.93391,-0.364836 v 8.072892 L 259.11803,82.060624 V 57.321049 Z" />
    <path
       id="rect14586"
       style="opacity:1;fill:#47fff8;stroke-width:3.11275;stroke-linecap:round"
       d="m 176.19265,284.45911 1.00426,1.55379 c 0.75916,1.1746 -3.98143,2.99143 -6.63271,7.96528 -22.25071,41.74248 -53.28988,81.75278 -102.749438,75.04336 -5.33698,-0.72398 -8.614208,4.89942 -9.373374,3.72481 l -1.004245,-1.5538 c -0.759165,-1.17461 1.308174,-8.78615 6.632707,-7.96525 42.3924,6.53572 80.49552,-29.41621 102.74942,-75.04338 2.47533,-5.07515 8.61422,-4.89943 9.37338,-3.72481 z"
       sodipodi:nodetypes="sssssssss" />
    <path
       id="rect14586-3"
       style="display:inline;fill:#47fff8;stroke-width:3.11275;stroke-linecap:round"
       d="m 175.55609,373.95987 1.00426,-1.55379 c 0.75916,-1.1746 -3.98143,-2.99143 -6.63271,-7.96528 -22.25071,-41.74248 -53.28988,-81.75278 -102.749439,-75.04336 -5.33698,0.72398 -8.614208,-4.89942 -9.373374,-3.72481 l -1.004245,1.5538 c -0.759165,1.17461 1.308174,8.78615 6.632707,7.96525 42.392401,-6.53572 80.495521,29.41621 102.749421,75.04338 2.47533,5.07515 8.61422,4.89943 9.37338,3.72481 z"
       sodipodi:nodetypes="sssssssss" />
  </g>
  <g
     inkscape:groupmode="layer"
     id="layer5"
     inkscape:label="under_under_layer"
     style="display:inline">
    <rect
       style="display:inline;fill:#47fff8;fill-opacity:1;stroke-width:1.52334;stroke-linecap:round"
       id="rect5348-1-3"
       width="16"
       height="28"
       x="218.46393"
       y="312.43805"
       rx="1.161919"
       ry="1.4748133" />
    <rect
       style="display:inline;fill:#47fff8;fill-opacity:1;stroke-width:1.52334;stroke-linecap:round"
       id="rect5348-8-8-2"
       width="16"
       height="28"
       x="354.42838"
       y="311.47693"
       rx="1.161919"
       ry="1.4748133" />
    <ellipse
       style="display:inline;opacity:1;fill:#47fff8;fill-opacity:1;stroke-width:5.24216;stroke-linecap:round"
       id="path13784"
       cx="293.44858"
       cy="326.37619"
       rx="14.873549"
       ry="8.8867121" />
    <ellipse
       style="display:inline;fill:#47fff8;fill-opacity:1;stroke-width:2.37141;stroke-linecap:round"
       id="path5491"
       ry="15.478125"
       rx="19.633234"
       cy="331.80356"
       cx="120.10214" />
    <rect
       style="display:inline;fill:#47fff8;fill-opacity:1;stroke-width:1.52334;stroke-linecap:round"
       id="rect5348"
       width="16"
       height="28"
       x="53.790756"
       y="315.29926"
       rx="1.161919"
       ry="1.4748133" />
    <rect
       style="display:inline;fill:#47fff8;fill-opacity:1;stroke-width:1.52334;stroke-linecap:round"
       id="rect5348-8"
       width="16"
       height="28"
       x="164.3111"
       y="315.64777"
       rx="1.161919"
       ry="1.4748133" />
    <path
       id="path15197"
       style="opacity:1;fill:#ffffff;stroke-width:5.37996;stroke-linecap:round"
       d="m 116.947,323.98514 c -0.19565,5.12244 -1.39468,9.28176 -3.11511,9.28177 -1.72043,1e-5 -3.05735,-4.15591 -3.11512,-9.28177 -0.12903,-11.44877 1.39469,-9.28179 3.11512,-9.28178 1.72043,1e-5 3.63124,-4.2315 3.11511,9.28178 z"
       sodipodi:nodetypes="sssss" />
    <path
       id="path15197-8"
       style="display:inline;fill:#ffffff;stroke-width:5.37996;stroke-linecap:round"
       d="m 128.54366,323.74194 c -0.28542,5.11824 -1.39469,9.28179 -3.11512,9.28178 -1.72043,-1e-5 -2.87187,-4.16138 -3.11511,-9.28178 -0.58064,-12.22295 1.36242,-7.41079 1.56672,-7.28177 1.45464,0.91865 5.17964,-1.97345 4.66351,7.28177 z"
       sodipodi:nodetypes="sssss" />
    <path
       id="path15197-8-6"
       style="display:inline;fill:#ffffff;stroke-width:9.14065;stroke-linecap:round"
       d="m 121.74551,345.09089 c -2.43651,7.09352 -14.44159,3.75334 -11.00032,-6.57731 1.56951,-4.71164 4.13244,0.60354 9.25849,0.49412 5.12605,-0.10942 11.75631,-5.20914 9.30456,-0.89036 -2.98286,5.25434 -6.2137,3.04607 -7.56273,6.97355 z"
       sodipodi:nodetypes="sssss" />
    <path
       id="rect14586-6"
       style="display:inline;fill:#47fff8;stroke-width:3.11275;stroke-linecap:round"
       d="M 171.06966 142.69465 C 170.99779 142.69395 170.925 142.69412 170.85107 142.69568 C 168.63313 142.74263 165.51564 143.83262 163.92023 147.10368 C 157.51445 160.23741 149.79336 172.56607 141.03687 183.31388 C 121.65223 159.88683 96.996732 143.87876 64.279281 148.31705 C 58.942321 149.04099 55.664855 143.4176 54.905693 144.59221 L 53.901619 146.14612 C 53.142458 147.32073 55.209777 154.93191 60.53429 154.11101 C 83.596432 150.55546 105.38619 159.58223 124.04824 175.89262 C 125.09853 176.43961 125.90288 178.02894 125.64453 182.66172 C 125.35911 187.77995 124.2499 191.94333 122.52947 191.94332 C 120.80904 191.94331 119.65766 187.78211 119.41442 182.66172 C 119.22389 178.65107 119.30511 176.4742 119.50743 175.36449 A 19.633234 15.478125 0 0 0 117.20318 175.24512 A 19.633234 15.478125 0 0 0 113.98529 175.45854 C 114.14618 176.95361 114.18699 179.27446 114.04834 182.9046 C 113.85269 188.02702 112.65319 192.18619 110.93276 192.1862 C 109.21235 192.18621 107.87548 188.03044 107.81771 182.9046 C 107.78847 180.31046 107.84817 178.44325 107.9717 177.06361 A 19.633234 15.478125 0 0 0 97.569755 190.72324 A 19.633234 15.478125 0 0 0 108.05284 204.41595 C 107.13266 202.69279 106.87789 200.33955 107.84613 197.43291 C 109.41564 192.72127 111.97895 198.03687 117.105 197.92745 C 122.23102 197.81803 128.86109 192.71829 126.40934 197.03707 C 123.42648 202.29138 120.19552 200.08281 118.84649 204.01029 C 118.28742 205.63791 117.22428 206.71496 115.95985 207.28554 C 99.365379 219.13101 80.725335 225.16137 61.170943 222.14665 C 55.846434 221.32575 53.779112 228.93744 54.538273 230.11205 L 55.542346 231.66596 C 56.301508 232.84057 59.578978 227.21715 64.915934 227.94113 C 97.272583 232.33044 121.74498 216.72314 141.03118 193.71789 C 149.52876 204.28151 157.03158 216.336 163.28357 229.15449 C 165.7589 234.2296 171.898 234.05391 172.65716 232.87933 L 173.66123 231.32542 C 174.42039 230.15082 169.67984 228.33434 167.02856 223.36053 C 160.56876 211.24187 153.36657 199.27142 145.18959 188.5456 C 153.63049 177.60893 161.03802 165.33028 167.66522 152.89764 C 170.3165 147.92383 175.05705 146.10684 174.29789 144.93224 L 173.29382 143.37885 C 173.05658 143.01178 172.29404 142.74203 171.28205 142.69982 C 171.21248 142.69691 171.14153 142.69535 171.06966 142.69465 z M 136.6299 188.48307 C 136.63063 188.4839 136.63124 188.48482 136.63197 188.48565 C 136.63148 188.4862 136.63091 188.48666 136.63042 188.4872 A 19.633234 15.478125 0 0 0 136.6299 188.48307 z " />
  </g>
  <g
     inkscape:label="Layer 1"
     inkscape:groupmode="layer"
     id="layer1"
     style="display:inline">
    <text
       xml:space="preserve"
       style="font-size:17.6389px;font-family:Rockwell;-inkscape-font-specification:Rockwell;text-align:center;text-anchor:middle;fill:#e94747;fill-opacity:1;stroke-width:3;stroke-linecap:round"
       x="93.170151"
       y="262.29831"
       id="text2672"><tspan
         sodipodi:role="line"
         id="tspan2670"
         style="stroke-width:3"
         x="93.170151"
         y="262.29831">underneath</tspan></text>
    <text
       xml:space="preserve"
       style="font-size:17.6389px;font-family:Rockwell;-inkscape-font-specification:Rockwell;text-align:center;text-anchor:middle;fill:#e94747;fill-opacity:1;stroke-width:3;stroke-linecap:round"
       x="62.961048"
       y="125.58508"
       id="text2672-3"><tspan
         sodipodi:role="line"
         id="tspan2670-1"
         style="stroke-width:3"
         x="62.961048"
         y="125.58508">base</tspan></text>
    <text
       xml:space="preserve"
       style="font-size:17.6389px;font-family:Rockwell;-inkscape-font-specification:Rockwell;text-align:center;text-anchor:middle;fill:#e94747;fill-opacity:1;stroke-width:3;stroke-linecap:round"
       x="101.69474"
       y="30.211252"
       id="text2672-3-8"><tspan
         sodipodi:role="line"
         id="tspan2670-1-8"
         style="stroke-width:3"
         x="101.69474"
         y="30.211252">take A</tspan></text>
    <text
       xml:space="preserve"
       style="font-size:17.6389px;font-family:Rockwell;-inkscape-font-specification:Rockwell;text-align:center;text-anchor:middle;fill:#e94747;fill-opacity:1;stroke-width:3;stroke-linecap:round"
       x="276.80948"
       y="263.13177"
       id="text2672-2"><tspan
         sodipodi:role="line"
         id="tspan2670-0"
         style="stroke-width:3"
         x="276.80948"
         y="263.13177">underneath</tspan></text>
    <text
       xml:space="preserve"
       style="font-size:17.6389px;font-family:Rockwell;-inkscape-font-specification:Rockwell;text-align:center;text-anchor:middle;fill:#e94747;fill-opacity:1;stroke-width:3;stroke-linecap:round"
       x="246.60036"
       y="130.90874"
       id="text2672-3-9"><tspan
         sodipodi:role="line"
         id="tspan2670-1-81"
         style="stroke-width:3"
         x="246.60036"
         y="130.90874">base</tspan></text>
    <text
       xml:space="preserve"
       style="font-size:17.6389px;font-family:Rockwell;-inkscape-font-specification:Rockwell;text-align:center;text-anchor:middle;fill:#e94747;fill-opacity:1;stroke-width:3;stroke-linecap:round"
       x="219.85303"
       y="15.95478"
       id="text2672-3-8-4"><tspan
         sodipodi:role="line"
         id="tspan2670-1-8-7"
         style="stroke-width:3"
         x="219.85303"
         y="15.95478">take B</tspan></text>
  </g>
</svg>
