<?xml version="1.0" encoding="UTF-8" standalone="no"?>
<!-- Created with Inkscape (http://www.inkscape.org/) -->

<svg
   width="400mm"
   height="400mm"
   viewBox="0 0 400 400"
   version="1.1"
   id="svg5"
   inkscape:version="1.2.1 (9c6d41e410, 2022-07-14)"
   sodipodi:docname="car_sun_blocker_main.svg"
   xmlns:inkscape="http://www.inkscape.org/namespaces/inkscape"
   xmlns:sodipodi="http://sodipodi.sourceforge.net/DTD/sodipodi-0.dtd"
   xmlns="http://www.w3.org/2000/svg"
   xmlns:svg="http://www.w3.org/2000/svg">
  <sodipodi:namedview
     id="namedview7"
     pagecolor="#ffffff"
     bordercolor="#000000"
     borderopacity="0.25"
     inkscape:showpageshadow="2"
     inkscape:pageopacity="0.0"
     inkscape:pagecheckerboard="0"
     inkscape:deskcolor="#d1d1d1"
     inkscape:document-units="mm"
     showgrid="false"
     inkscape:zoom="0.35355339"
     inkscape:cx="1006.9201"
     inkscape:cy="741.04791"
     inkscape:window-width="1450"
     inkscape:window-height="906"
     inkscape:window-x="368"
     inkscape:window-y="54"
     inkscape:window-maximized="0"
     inkscape:current-layer="layer1"
     showguides="false" />
  <defs
     id="defs2">
    <inkscape:path-effect
       effect="mirror_symmetry"
       start_point="284.61395,158.14332"
       end_point="284.61395,189.43179"
       center_point="284.61395,173.78756"
       id="path-effect5109"
       is_visible="true"
       lpeversion="1.2"
       lpesatellites=""
       mode="horizontal"
       discard_orig_path="false"
       fuse_paths="false"
       oposite_fuse="false"
       split_items="false"
       split_open="false"
       link_styles="false" />
    <inkscape:path-effect
       effect="mirror_symmetry"
       start_point="188.49017,158.14332"
       end_point="188.49017,189.43179"
       center_point="188.49017,173.78756"
       id="path-effect5085"
       is_visible="true"
       lpeversion="1.2"
       lpesatellites=""
       mode="vertical"
       discard_orig_path="false"
       fuse_paths="false"
       oposite_fuse="false"
       split_items="false"
       split_open="false"
       link_styles="false" />
    <inkscape:path-effect
       effect="mirror_symmetry"
       start_point="255.14078,59.539463"
       end_point="255.14078,130.27095"
       center_point="255.14078,94.905208"
       id="path-effect5722"
       is_visible="true"
       lpeversion="1.2"
       lpesatellites=""
       mode="vertical"
       discard_orig_path="false"
       fuse_paths="false"
       oposite_fuse="false"
       split_items="false"
       split_open="false"
       link_styles="false" />
    <inkscape:path-effect
       effect="mirror_symmetry"
       start_point="210.70395,59.539463"
       end_point="210.70395,76.539463"
       center_point="210.70395,68.039463"
       id="path-effect5720"
       is_visible="true"
       lpeversion="1.2"
       lpesatellites=""
       mode="horizontal"
       discard_orig_path="false"
       fuse_paths="false"
       oposite_fuse="false"
       split_items="false"
       split_open="false"
       link_styles="false" />
    <inkscape:path-effect
       effect="mirror_symmetry"
       start_point="84.478917,122.12929"
       end_point="257.187,2.6641503"
       center_point="170.83296,62.396718"
       id="path-effect5697"
       is_visible="true"
       lpeversion="1.2"
       lpesatellites=""
       mode="horizontal"
       discard_orig_path="false"
       fuse_paths="false"
       oposite_fuse="false"
       split_items="false"
       split_open="false"
       link_styles="false" />
    <inkscape:path-effect
       effect="mirror_symmetry"
       start_point="47.891117,226.61572"
       end_point="197.89112,276.61572"
       center_point="197.89112,226.61572"
       id="path-effect5693"
       is_visible="true"
       lpeversion="1.2"
       lpesatellites=""
       mode="horizontal"
       discard_orig_path="false"
       fuse_paths="false"
       oposite_fuse="false"
       split_items="false"
       split_open="false"
       link_styles="false" />
  </defs>
  <g
     inkscape:label="Layer 1"
     inkscape:groupmode="layer"
     id="layer1">
    <rect
       style="fill:#000000;stroke-width:2.60093;stroke-linecap:round"
       id="rect234-2-6"
       width="20"
       height="290"
       x="13.044034"
       y="8.5837402"
       ry="11.005973"
       rx="3.4665442" />
    <rect
       style="fill:#000000;fill-opacity:1;stroke-width:3.45623;stroke-linecap:round"
       id="rect348-7"
       width="160"
       height="110"
       x="43.485115"
       y="275.77246"
       rx="7.1728773"
       ry="6.4894891" />
    <rect
       style="fill:#47fff8;fill-opacity:1;stroke-width:1.54429;stroke-linecap:round"
       id="rect5348"
       width="16.089624"
       height="28.615166"
       x="59.120026"
       y="316.75055"
       rx="1.1684276"
       ry="1.5072153" />
    <rect
       style="fill:#47fff8;fill-opacity:1;stroke-width:2.10424;stroke-linecap:round"
       id="rect5348-3"
       width="8.9458742"
       height="95.554749"
       x="327.1983"
       y="-168.54099"
       rx="0.64964885"
       ry="5.0330505"
       transform="rotate(90)" />
    <rect
       style="fill:#e94747;fill-opacity:1;stroke-width:1.13386;stroke-linecap:round"
       id="rect1478-6"
       width="5"
       height="21"
       x="62.985245"
       y="320.00607"
       rx="0.95826644"
       ry="1.4387302" />
    <rect
       style="fill:#47fff8;fill-opacity:1;stroke-width:1.54429;stroke-linecap:round"
       id="rect5348-8"
       width="16.089624"
       height="28.615166"
       x="165.63402"
       y="316.8345"
       rx="1.1684276"
       ry="1.5072153" />
    <rect
       style="fill:#e94747;fill-opacity:1;stroke-width:1.13386;stroke-linecap:round"
       id="rect1478-9-0"
       width="5"
       height="21"
       x="172.98477"
       y="320.00607"
       rx="0.95826644"
       ry="1.4387302" />
    <text
       xml:space="preserve"
       style="font-size:17.6389px;font-family:Rockwell;-inkscape-font-specification:Rockwell;text-align:center;text-anchor:middle;fill:#e94747;fill-opacity:1;stroke-width:3;stroke-linecap:round"
       x="92.795975"
       y="269.78186"
       id="text2672"><tspan
         sodipodi:role="line"
         id="tspan2670"
         style="stroke-width:3"
         x="92.795975"
         y="269.78186">underneath</tspan></text>
    <text
       xml:space="preserve"
       style="font-size:17.6389px;font-family:Rockwell;-inkscape-font-specification:Rockwell;text-align:center;text-anchor:middle;fill:#e94747;fill-opacity:1;stroke-width:3;stroke-linecap:round"
       x="68.573715"
       y="146.91319"
       id="text2672-3"><tspan
         sodipodi:role="line"
         id="tspan2670-1"
         style="stroke-width:3"
         x="68.573715"
         y="146.91319">top</tspan></text>
    <ellipse
       style="fill:#47fff8;fill-opacity:1;stroke-width:2.37141;stroke-linecap:round"
       id="path5491"
       cx="120.10214"
       cy="331.80356"
       rx="16.536459"
       ry="15.478125" />
    <path
       id="rect348-7-7"
       style="fill:#000000;fill-opacity:1;stroke-width:3.45623;stroke-linecap:round"
       d="M 228.01141 134.33392 C 224.03764 134.33392 220.83872 137.22827 220.83872 140.82345 L 220.83872 237.8444 C 220.83872 241.43956 224.03764 244.33392 228.01141 244.33392 L 373.66556 244.33392 C 377.63933 244.33392 380.83877 241.43956 380.83877 237.8444 L 380.83877 140.82345 C 380.83877 137.22827 377.63933 134.33392 373.66556 134.33392 L 228.01141 134.33392 z M 241.2969 178.5674 L 244.38043 178.5674 C 244.91131 178.5674 245.33851 179.20901 245.33851 180.00607 L 245.33851 198.12847 C 245.33851 198.92553 244.91131 199.56715 244.38043 199.56715 L 241.2969 199.56715 C 240.76602 199.56715 240.33882 198.92553 240.33882 198.12847 L 240.33882 180.00607 C 240.33882 179.20901 240.76602 178.5674 241.2969 178.5674 z M 351.29639 178.5674 L 354.37992 178.5674 C 354.9108 178.5674 355.338 179.20901 355.338 180.00607 L 355.338 198.12847 C 355.338 198.92553 354.9108 199.56715 354.37992 199.56715 L 351.29639 199.56715 C 350.76551 199.56715 350.33831 198.92553 350.33831 198.12847 L 350.33831 180.00607 C 350.33831 179.20901 350.76551 178.5674 351.29639 178.5674 z " />
    <path
       id="rect5348-36"
       style="fill:#00ada7;fill-opacity:1;stroke-width:1.54429;stroke-linecap:round"
       d="M 297.45575 174.88648 A 16.536459 15.478125 0 0 0 281.66963 185.75972 L 255.37253 185.75972 C 254.33007 185.75972 253.36448 185.80027 252.56288 185.86979 L 252.56288 176.81918 C 252.56288 175.98418 252.04178 175.31178 251.39447 175.31178 L 237.64183 175.31178 C 236.99452 175.31178 236.47342 175.98418 236.47342 176.81918 L 236.47342 202.41969 C 236.47342 203.25468 236.99452 203.92709 237.64183 203.92709 L 251.39447 203.92709 C 252.04178 203.92709 252.56288 203.25468 252.56288 202.41969 L 252.56288 194.59536 C 253.36448 194.66488 254.33007 194.70543 255.37253 194.70543 L 281.59005 194.70543 A 16.536459 15.478125 0 0 0 297.45575 205.84273 A 16.536459 15.478125 0 0 0 313.32093 194.70543 L 340.86136 194.70543 C 341.62499 194.70543 342.34019 194.68237 342.98733 194.64342 L 342.98733 202.50392 C 342.98733 203.33891 343.50843 204.0108 344.15574 204.0108 L 357.9089 204.0108 C 358.55621 204.0108 359.07731 203.33891 359.07731 202.50392 L 359.07731 176.9029 C 359.07731 176.0679 358.55621 175.39601 357.9089 175.39601 L 344.15574 175.39601 C 343.50843 175.39601 342.98733 176.0679 342.98733 176.9029 L 342.98733 185.82173 C 342.34019 185.78278 341.62499 185.75972 340.86136 185.75972 L 313.2429 185.75972 A 16.536459 15.478125 0 0 0 297.45575 174.88648 z " />
    <rect
       style="fill:#47fff8;fill-opacity:0.99729;stroke-width:3.19074;stroke-linecap:round"
       id="rect348-7-8"
       width="150"
       height="100"
       x="50.133614"
       y="154.83528"
       rx="6.7245727"
       ry="5.8995357" />
    <rect
       style="fill:#e94747;fill-opacity:1;stroke-width:1.13386;stroke-linecap:round"
       id="rect1478-6-9"
       width="5"
       height="21"
       x="64.871231"
       y="194.3064"
       rx="0.95826644"
       ry="1.4387302" />
    <rect
       style="fill:#e94747;fill-opacity:1;stroke-width:1.13386;stroke-linecap:round"
       id="rect1478-9-0-5"
       width="5"
       height="21"
       x="174.87076"
       y="194.3064"
       rx="0.95826644"
       ry="1.4387302" />
    <path
       id="rect20356"
       style="fill:#e94747;fill-opacity:1;stroke-width:0.89502;stroke-linecap:round"
       d="m 191.15779,154.80814 v 10.57662 l -34.96272,0.003 v -10.53941 h -0.71882 v 10.53941 l -29.52378,0.002 v -10.54044 h -0.7183 v 10.54044 l -27.455166,0.002 v -9.96631 c 0,-0.32636 -0.16012,-0.58911 -0.35916,-0.58911 -0.19903,0 -0.35915,0.26275 -0.35915,0.58911 v 9.96631 l -39.28287,0.003 v -10.53288 h -0.7183 v 10.53218 l -6.95462,5.2e-4 -0.002,0.52089 6.95668,-5.1e-4 v 19.0469 l -6.94532,5.1e-4 -0.002,0.52142 6.94738,-5.2e-4 v 40.76495 l -6.95462,5.2e-4 -0.002,0.5209 6.95668,-5.2e-4 v 16.85634 l -6.90862,5.2e-4 -0.002,0.52089 6.91069,-5.1e-4 v 10.71562 h 0.7183 v -10.71562 l 39.28287,-0.003 v 10.10377 c 0,0.32636 0.16012,0.58911 0.35915,0.58911 0.19904,0 0.35916,-0.26275 0.35916,-0.58911 v -10.10377 l 27.455166,-0.002 v 10.70736 h 0.7183 v -10.70736 l 29.52378,-0.002 v 10.70891 h 0.71882 v -10.70891 l 34.96272,-0.003 v 10.6717 h 0.7183 v -10.6717 l 8.27805,-5.2e-4 0.002,-0.5209 -8.28012,5.2e-4 v -16.85582 l 8.23206,-5.2e-4 0.002,-0.52089 -8.23413,5.1e-4 v -40.76547 l 8.24085,-5.1e-4 0.002,-0.5209 -8.24291,5.1e-4 v -19.04689 l 8.23206,-5.2e-4 0.002,-0.5209 -8.23413,5.2e-4 v -10.57662 z m 0,11.09752 v 19.04689 l -34.96272,0.003 v -19.0469 z m -35.68154,0.003 v 19.0469 l -29.52378,0.002 v -19.0469 z m -30.24208,0.002 v 19.0469 l -27.455166,0.002 v -19.0469 z m -28.173476,0.002 v 19.0469 l -39.28287,0.003 v -19.0469 z m 94.097096,19.56108 v 40.76547 l -34.96272,0.003 v -40.76547 z m -35.68154,0.003 v 40.76547 l -29.52378,0.002 v -40.76547 z m -30.24208,0.002 v 40.76547 l -27.455166,0.002 v -40.76547 z m -28.173476,0.002 v 40.76547 l -39.28287,0.003 v -40.76495 z m 94.097096,41.27965 v 16.85582 l -34.96272,0.003 V 226.7634 Z m -35.68154,0.003 v 16.85581 l -29.52378,0.002 v -16.85582 z m -30.24208,0.002 v 16.85582 l -27.455166,0.002 v -16.85582 z m -28.173476,0.002 v 16.85582 l -39.28287,0.003 v -16.85634 z" />
    <path
       id="rect348-7-8-9"
       style="fill:#47fff8;fill-opacity:0.99729;stroke-width:3.19074;stroke-linecap:round"
       d="M 234.0901 21.866366 C 230.36471 21.866366 227.36545 24.49793 227.36545 27.766264 L 227.36545 32.426444 L 234.29164 32.425928 L 234.29164 21.893754 L 235.00994 21.893754 L 235.00994 32.425928 L 274.29282 32.423344 L 274.29282 22.457027 C 274.29282 22.13067 274.45294 21.867916 274.65197 21.867916 C 274.85101 21.867916 275.01112 22.13067 275.01112 22.457027 L 275.01112 32.423344 L 302.46629 32.421277 L 302.46629 21.880835 L 303.18459 21.880835 L 303.18459 32.421277 L 332.70837 32.41921 L 332.70837 21.879801 L 333.42719 21.879801 L 333.42719 32.41921 L 368.38992 32.416109 L 368.38992 21.866366 L 234.0901 21.866366 z M 369.10822 21.866366 L 369.10822 32.416626 L 377.34234 32.416109 L 377.34028 32.937008 L 369.10822 32.937524 L 369.10822 51.984424 L 377.35113 51.983907 L 377.34906 52.504806 L 369.10822 52.505322 L 369.10822 93.270793 L 377.34234 93.270276 L 377.34028 93.791174 L 369.10822 93.791691 L 369.10822 110.64751 L 377.3656 110.64699 L 377.3656 27.766264 C 377.3656 24.49793 374.36635 21.866366 370.64094 21.866366 L 369.10822 21.866366 z M 368.38992 32.937008 L 333.42719 32.940108 L 333.42719 51.987008 L 368.38992 51.983907 L 368.38992 32.937008 z M 332.70837 32.940108 L 303.18459 32.942175 L 303.18459 51.989075 L 332.70837 51.987008 L 332.70837 32.940108 z M 302.46629 32.942175 L 275.01112 32.944242 L 275.01112 51.991142 L 302.46629 51.989075 L 302.46629 32.942175 z M 274.29282 32.944242 L 235.00994 32.946826 L 235.00994 51.993726 L 274.29282 51.991142 L 274.29282 32.944242 z M 234.29164 32.946826 L 227.36545 32.947343 L 227.36545 51.994242 L 234.29164 51.993726 L 234.29164 32.946826 z M 368.38992 52.505322 L 333.42719 52.507389 L 333.42719 93.273376 L 368.38992 93.270793 L 368.38992 52.505322 z M 332.70837 52.507906 L 303.18459 52.509973 L 303.18459 93.275444 L 332.70837 93.273376 L 332.70837 52.507906 z M 302.46629 52.509973 L 275.01112 52.51204 L 275.01112 93.277511 L 302.46629 93.275444 L 302.46629 52.509973 z M 274.29282 52.51204 L 235.00994 52.515658 L 235.00994 93.280611 L 274.29282 93.277511 L 274.29282 52.51204 z M 234.29164 52.515141 L 227.36545 52.515658 L 227.36545 93.280611 L 234.29164 93.280094 L 234.29164 52.515141 z M 243.06165 61.337858 L 246.14467 61.337858 C 246.67553 61.337858 247.10326 61.979475 247.10326 62.77653 L 247.10326 80.898938 C 247.10326 81.695993 246.67553 82.33761 246.14467 82.33761 L 243.06165 82.33761 C 242.53077 82.33761 242.10305 81.695993 242.10305 80.898938 L 242.10305 62.77653 C 242.10305 61.979475 242.53077 61.337858 243.06165 61.337858 z M 353.06114 61.337858 L 356.14415 61.337858 C 356.67503 61.337858 357.10275 61.979474 357.10275 62.77653 L 357.10275 80.898938 C 357.10275 81.695994 356.67503 82.33761 356.14415 82.33761 L 353.06114 82.33761 C 352.53026 82.33761 352.10254 81.695994 352.10254 80.898938 L 352.10254 62.77653 C 352.10254 61.979474 352.53026 61.337858 353.06114 61.337858 z M 368.38992 93.791691 L 333.42719 93.794792 L 333.42719 110.65061 L 368.38992 110.64751 L 368.38992 93.791691 z M 332.70837 93.794792 L 303.18459 93.796859 L 303.18459 110.65268 L 332.70837 110.65061 L 332.70837 93.794792 z M 302.46629 93.796859 L 275.01112 93.797892 L 275.01112 110.65474 L 302.46629 110.65268 L 302.46629 93.796859 z M 274.29282 93.798926 L 235.00994 93.800993 L 235.00994 110.65733 L 274.29282 110.65474 L 274.29282 93.798926 z M 234.29164 93.800993 L 227.36545 93.80151 L 227.36545 115.96708 C 227.36545 119.23542 230.36471 121.86646 234.0901 121.86646 L 234.29164 121.86646 L 234.29164 111.17823 L 227.38095 111.17874 L 227.38302 110.65785 L 234.29164 110.65733 L 234.29164 93.800993 z M 377.3656 111.16789 L 369.10822 111.16841 L 369.10822 121.84011 L 368.38992 121.84011 L 368.38992 111.16841 L 333.42719 111.17151 L 333.42719 121.86646 L 370.64094 121.86646 C 374.36635 121.86646 377.3656 119.23542 377.3656 115.96708 L 377.3656 111.16789 z M 332.70837 111.17151 L 303.18459 111.17358 L 303.18459 121.86646 L 332.70837 121.86646 L 332.70837 111.17151 z M 302.46629 111.17358 L 275.01112 111.17564 L 275.01112 121.27942 C 275.01112 121.60216 274.85414 121.86073 274.65817 121.86646 L 302.46629 121.86646 L 302.46629 111.17358 z M 274.29282 111.17564 L 235.00994 111.17823 L 235.00994 121.86646 L 274.64577 121.86646 C 274.44981 121.86073 274.29282 121.60216 274.29282 121.27942 L 274.29282 111.17564 z " />
  </g>
</svg>
